AnekKannada-CondensedMedium.ufo
<glyph name="ampersand" format="2">
  <advance width="851"/>
  <unicode hex="0026"/>
  <outline>
    <contour>
      <point x="869" y="0" type="line"/>
      <point x="869" y="11" type="line"/>
      <point x="805" y="117"/>
      <point x="711" y="262"/>
      <point x="650" y="359" type="curve" smooth="yes"/>
      <point x="620" y="407" type="line"/>
      <point x="368" y="790" type="line" smooth="yes"/>
      <point x="312" y="875"/>
      <point x="294" y="930"/>
      <point x="294" y="997" type="curve" smooth="yes"/>
      <point x="294" y="1003" type="line" smooth="yes"/>
      <point x="294" y="1078"/>
      <point x="335" y="1131"/>
      <point x="425" y="1131" type="curve" smooth="yes"/>
      <point x="494" y="1131"/>
      <point x="547" y="1107"/>
      <point x="591" y="1077" type="curve"/>
      <point x="581" y="1243" type="line"/>
      <point x="539" y="1273"/>
      <point x="473" y="1297"/>
      <point x="386" y="1297" type="curve" smooth="yes"/>
      <point x="211" y="1297"/>
      <point x="113" y="1187"/>
      <point x="113" y="1009" type="curve" smooth="yes"/>
      <point x="113" y="1002" type="line" smooth="yes"/>
      <point x="113" y="892"/>
      <point x="149" y="817"/>
      <point x="215" y="720" type="curve"/>
      <point x="246" y="673" type="line"/>
      <point x="536" y="243" type="line"/>
      <point x="551" y="221" type="line"/>
      <point x="579" y="179"/>
      <point x="659" y="48"/>
      <point x="689" y="0" type="curve"/>
    </contour>
    <contour>
      <point x="348" y="-19" type="curve" smooth="yes"/>
      <point x="525" y="-19"/>
      <point x="591" y="60"/>
      <point x="656" y="212" type="curve"/>
      <point x="689" y="264" type="line"/>
      <point x="755" y="408"/>
      <point x="786" y="604"/>
      <point x="794" y="831" type="curve"/>
      <point x="618" y="831" type="line"/>
      <point x="613" y="649"/>
      <point x="603" y="507"/>
      <point x="573" y="384" type="curve"/>
      <point x="539" y="304" type="line"/>
      <point x="502" y="198"/>
      <point x="454" y="135"/>
      <point x="365" y="135" type="curve" smooth="yes"/>
      <point x="278" y="135"/>
      <point x="236" y="194"/>
      <point x="236" y="316" type="curve" smooth="yes"/>
      <point x="236" y="441" type="line" smooth="yes"/>
      <point x="236" y="530"/>
      <point x="249" y="581"/>
      <point x="305" y="629" type="curve"/>
      <point x="212" y="759" type="line"/>
      <point x="98" y="674"/>
      <point x="58" y="578"/>
      <point x="58" y="425" type="curve" smooth="yes"/>
      <point x="58" y="308" type="line" smooth="yes"/>
      <point x="58" y="94"/>
      <point x="149" y="-19"/>
    </contour>
  </outline>
</glyph>
<glyph name="seven" format="2">
  <advance width="586"/>
  <unicode hex="0037"/>
  <outline>
    <contour>
      <point x="287" y="0" type="line"/>
      <point x="549" y="1112" type="line"/>
      <point x="549" y="1278" type="line"/>
      <point x="33" y="1278" type="line"/>
      <point x="33" y="1117" type="line"/>
      <point x="369" y="1117" type="line"/>
      <point x="104" y="0" type="line"/>
    </contour>
  </outline>
</glyph>
<glyph name="O" format="2">
  <advance width="789"/>
  <unicode hex="004F"/>
  <anchor x="394" y="0" name="bottom"/>
  <anchor x="394" y="639" name="center"/>
  <anchor x="577" y="5" name="ogonek"/>
  <anchor x="394" y="1278" name="top"/>
  <anchor x="20" y="1278" name="topleft"/>
  <anchor x="739" y="1278" name="topright"/>
  <outline>
    <contour>
      <point x="394" y="-19" type="curve" smooth="yes"/>
      <point x="607" y="-19"/>
      <point x="711" y="107"/>
      <point x="711" y="349" type="curve"/>
      <point x="711" y="928" type="line"/>
      <point x="711" y="1169"/>
      <point x="607" y="1297"/>
      <point x="394" y="1297" type="curve" smooth="yes"/>
      <point x="181" y="1297"/>
      <point x="78" y="1169"/>
      <point x="78" y="928" type="curve"/>
      <point x="78" y="349" type="line"/>
      <point x="78" y="107"/>
      <point x="181" y="-19"/>
    </contour>
    <contour>
      <point x="394" y="134" type="curve" smooth="yes"/>
      <point x="296" y="134"/>
      <point x="258" y="204"/>
      <point x="258" y="331" type="curve" smooth="yes"/>
      <point x="258" y="947" type="line" smooth="yes"/>
      <point x="258" y="1075"/>
      <point x="296" y="1144"/>
      <point x="394" y="1144" type="curve" smooth="yes"/>
      <point x="492" y="1144"/>
      <point x="530" y="1075"/>
      <point x="530" y="947" type="curve" smooth="yes"/>
      <point x="530" y="331" type="line" smooth="yes"/>
      <point x="530" y="204"/>
      <point x="492" y="134"/>
    </contour>
  </outline>
</glyph>
<glyph name="e" format="2">
  <advance width="683"/>
  <unicode hex="0065"/>
  <anchor x="360" y="0" name="bottom"/>
  <anchor x="595" y="10" name="ogonek"/>
  <anchor x="353" y="998" name="top"/>
  <outline>
    <contour>
      <point x="389" y="-14" type="curve" smooth="yes"/>
      <point x="476" y="-14"/>
      <point x="551" y="10"/>
      <point x="603" y="41" type="curve"/>
      <point x="615" y="195" type="line"/>
      <point x="561" y="162"/>
      <point x="497" y="138"/>
      <point x="424" y="138" type="curve" smooth="yes"/>
      <point x="304" y="138"/>
      <point x="241" y="197"/>
      <point x="241" y="326" type="curve" smooth="yes"/>
      <point x="241" y="469" type="line"/>
      <point x="241" y="499" type="line"/>
      <point x="241" y="708" type="line" smooth="yes"/>
      <point x="241" y="819"/>
      <point x="272" y="871"/>
      <point x="350" y="871" type="curve" smooth="yes"/>
      <point x="426" y="871"/>
      <point x="459" y="819"/>
      <point x="459" y="708" type="curve" smooth="yes"/>
      <point x="459" y="624"/>
      <point x="459" y="535"/>
      <point x="459" y="417" type="curve"/>
      <point x="616" y="417" type="line"/>
      <point x="624" y="474"/>
      <point x="626" y="526"/>
      <point x="626" y="581" type="curve" smooth="yes"/>
      <point x="626" y="688" type="line" smooth="yes"/>
      <point x="626" y="898"/>
      <point x="536" y="1015"/>
      <point x="350" y="1015" type="curve" smooth="yes"/>
      <point x="160" y="1015"/>
      <point x="69" y="904"/>
      <point x="69" y="690" type="curve" smooth="yes"/>
      <point x="69" y="342" type="line" smooth="yes"/>
      <point x="69" y="105"/>
      <point x="177" y="-14"/>
    </contour>
    <contour>
      <point x="576" y="417" type="line"/>
      <point x="576" y="555" type="line"/>
      <point x="177" y="555" type="line"/>
      <point x="177" y="417" type="line"/>
    </contour>
  </outline>
</glyph>
<glyph name="germandbls" format="2">
  <advance width="835"/>
  <unicode hex="00DF"/>
  <anchor x="400" y="0" name="bottom"/>
  <anchor x="400" y="998" name="top"/>
  <outline>
    <contour>
      <point x="88" y="0" type="line"/>
      <point x="257" y="0" type="line"/>
      <point x="257" y="1032" type="line" smooth="yes"/>
      <point x="257" y="1152"/>
      <point x="296" y="1211"/>
      <point x="399" y="1211" type="curve" smooth="yes"/>
      <point x="500" y="1211"/>
      <point x="534" y="1159"/>
      <point x="534" y="1093" type="curve" smooth="yes"/>
      <point x="534" y="974"/>
      <point x="359" y="890"/>
      <point x="359" y="713" type="curve" smooth="yes"/>
      <point x="359" y="705" type="line" smooth="yes"/>
      <point x="359" y="589"/>
      <point x="398" y="541"/>
      <point x="505" y="463" type="curve" smooth="yes"/>
      <point x="602" y="393"/>
      <point x="614" y="348"/>
      <point x="614" y="281" type="curve" smooth="yes"/>
      <point x="614" y="259" type="line" smooth="yes"/>
      <point x="614" y="186"/>
      <point x="580" y="139"/>
      <point x="503" y="139" type="curve" smooth="yes"/>
      <point x="451" y="139"/>
      <point x="404" y="159"/>
      <point x="360" y="186" type="curve"/>
      <point x="371" y="23" type="line"/>
      <point x="408" y="4"/>
      <point x="458" y="-16"/>
      <point x="536" y="-16" type="curve" smooth="yes"/>
      <point x="691" y="-16"/>
      <point x="784" y="81"/>
      <point x="784" y="252" type="curve" smooth="yes"/>
      <point x="784" y="282" type="line" smooth="yes"/>
      <point x="784" y="414"/>
      <point x="742" y="478"/>
      <point x="641" y="553" type="curve" smooth="yes"/>
      <point x="564" y="610"/>
      <point x="528" y="644"/>
      <point x="528" y="713" type="curve" smooth="yes"/>
      <point x="528" y="723" type="line" smooth="yes"/>
      <point x="528" y="843"/>
      <point x="707" y="923"/>
      <point x="707" y="1104" type="curve" smooth="yes"/>
      <point x="707" y="1255"/>
      <point x="612" y="1353"/>
      <point x="403" y="1353" type="curve" smooth="yes"/>
      <point x="183" y="1353"/>
      <point x="88" y="1250"/>
      <point x="88" y="1041" type="curve" smooth="yes"/>
    </contour>
  </outline>
</glyph>
<glyph name="OE" format="2">
  <advance width="1049"/>
  <unicode hex="0152"/>
  <anchor x="526" y="0" name="bottom"/>
  <anchor x="526" y="1278" name="top"/>
  <outline>
    <contour>
      <point x="394" y="-19" type="curve" smooth="yes"/>
      <point x="606" y="-19"/>
      <point x="709" y="109"/>
      <point x="709" y="349" type="curve"/>
      <point x="709" y="928" type="line"/>
      <point x="709" y="1167"/>
      <point x="606" y="1297"/>
      <point x="394" y="1297" type="curve" smooth="yes"/>
      <point x="181" y="1297"/>
      <point x="78" y="1169"/>
      <point x="78" y="928" type="curve"/>
      <point x="78" y="349" type="line"/>
      <point x="78" y="107"/>
      <point x="181" y="-19"/>
    </contour>
    <contour>
      <point x="394" y="134" type="curve" smooth="yes"/>
      <point x="296" y="134"/>
      <point x="258" y="204"/>
      <point x="258" y="331" type="curve" smooth="yes"/>
      <point x="258" y="947" type="line" smooth="yes"/>
      <point x="258" y="1075"/>
      <point x="296" y="1144"/>
      <point x="394" y="1144" type="curve" smooth="yes"/>
      <point x="492" y="1144"/>
      <point x="530" y="1075"/>
      <point x="530" y="947" type="curve" smooth="yes"/>
      <point x="530" y="331" type="line" smooth="yes"/>
      <point x="530" y="204"/>
      <point x="492" y="134"/>
    </contour>
    <contour>
      <point x="990" y="0" type="line"/>
      <point x="990" y="158" type="line"/>
      <point x="480" y="158" type="line"/>
      <point x="480" y="0" type="line"/>
    </contour>
    <contour>
      <point x="982" y="574" type="line"/>
      <point x="982" y="731" type="line"/>
      <point x="651" y="731" type="line"/>
      <point x="651" y="574" type="line"/>
    </contour>
    <contour>
      <point x="990" y="1120" type="line"/>
      <point x="990" y="1278" type="line"/>
      <point x="488" y="1278" type="line"/>
      <point x="488" y="1120" type="line"/>
    </contour>
  </outline>
</glyph>
<glyph name="acutecomb" format="2">
  <advance width="488"/>
  <unicode hex="0301"/>
  <anchor x="166" y="998" name="_top"/>
  <anchor x="171" y="1317" name="top"/>
  <outline>
    <contour>
      <point x="96" y="1092" type="line"/>
      <point x="96" y="1092" type="line"/>
      <point x="236" y="1092" type="line"/>
      <point x="392" y="1349" type="line"/>
      <point x="392" y="1349" type="line"/>
      <point x="214" y="1349" type="line"/>
    </contour>
  </outline>
</glyph>
<glyph name="tildecomb" format="2">
  <advance width="650"/>
  <unicode hex="0303"/>
  <anchor x="325" y="998" name="_top"/>
  <anchor x="326" y="1317" name="top"/>
  <outline>
    <contour>
      <point x="432" y="1124" type="curve" smooth="yes"/>
      <point x="516" y="1124"/>
      <point x="550" y="1181"/>
      <point x="550" y="1280" type="curve" smooth="yes"/>
      <point x="550" y="1312" type="line"/>
      <point x="443" y="1312" type="line"/>
      <point x="443" y="1299" type="line" smooth="yes"/>
      <point x="443" y="1265"/>
      <point x="435" y="1248"/>
      <point x="407" y="1248" type="curve" smooth="yes"/>
      <point x="366" y="1248"/>
      <point x="301" y="1303"/>
      <point x="229" y="1303" type="curve" smooth="yes"/>
      <point x="144" y="1303"/>
      <point x="110" y="1244"/>
      <point x="110" y="1146" type="curve" smooth="yes"/>
      <point x="110" y="1114" type="line"/>
      <point x="217" y="1114" type="line"/>
      <point x="217" y="1127" type="line" smooth="yes"/>
      <point x="217" y="1160"/>
      <point x="226" y="1178"/>
      <point x="254" y="1178" type="curve" smooth="yes"/>
      <point x="296" y="1178"/>
      <point x="366" y="1124"/>
    </contour>
  </outline>
</glyph>
<glyph name="Candrabindu" format="2">
  <unicode hex="0C81"/>
  <unicode hex="0D01"/>
  <outline>
    <contour>
      <point x="-537" y="1419" type="curve" smooth="yes"/>
      <point x="-658.629" y="1419"/>
      <point x="-702" y="1487.55"/>
      <point x="-702" y="1573" type="curve" smooth="yes"/>
      <point x="-702" y="1603" type="line"/>
      <point x="-832" y="1603" type="line"/>
      <point x="-832" y="1573" type="line" smooth="yes"/>
      <point x="-832" y="1415"/>
      <point x="-751" y="1300"/>
      <point x="-538" y="1300" type="curve" smooth="yes"/>
      <point x="-325" y="1300"/>
      <point x="-243" y="1414"/>
      <point x="-243" y="1573" type="curve" smooth="yes"/>
      <point x="-243" y="1603" type="line"/>
      <point x="-372" y="1603" type="line"/>
      <point x="-372" y="1573" type="line" smooth="yes"/>
      <point x="-372" y="1488.49"/>
      <point x="-415.371" y="1419"/>
    </contour>
    <contour>
      <point x="-617" y="1605" type="line" smooth="yes"/>
      <point x="-617" y="1547.41"/>
      <point x="-590.333" y="1516"/>
      <point x="-537" y="1516" type="curve" smooth="yes"/>
      <point x="-484.733" y="1516"/>
      <point x="-457" y="1547.41"/>
      <point x="-457" y="1605" type="curve" smooth="yes"/>
      <point x="-457" y="1609" type="line" smooth="yes"/>
      <point x="-457" y="1667.6"/>
      <point x="-484.733" y="1699"/>
      <point x="-537" y="1699" type="curve" smooth="yes"/>
      <point x="-590.333" y="1699"/>
      <point x="-617" y="1667.6"/>
      <point x="-617" y="1609" type="curve" smooth="yes"/>
    </contour>
  </outline>
</glyph>
<glyph name="swastisri" format="2">
  <advance width="1232"/>
  <unicode hex="0C84"/>
  <outline>
    <contour>
      <point x="1174" y="503" type="line" smooth="yes"/>
      <point x="1174" y="161.533"/>
      <point x="990.662" y="-25"/>
      <point x="626" y="-25" type="curve" smooth="yes"/>
      <point x="252.702" y="-25"/>
      <point x="60" y="174.551"/>
      <point x="60" y="537" type="curve" smooth="yes"/>
      <point x="60" y="663" type="line" smooth="yes"/>
      <point x="60" y="1076.4"/>
      <point x="277.714" y="1309"/>
      <point x="695" y="1309" type="curve"/>
      <point x="707" y="1176" type="line"/>
      <point x="379.212" y="1176"/>
      <point x="210" y="990.158"/>
      <point x="210" y="663" type="curve" smooth="yes"/>
      <point x="210" y="539" type="line" smooth="yes"/>
      <point x="210" y="264.224"/>
      <point x="350.241" y="109"/>
      <point x="624" y="109" type="curve" smooth="yes"/>
      <point x="888.115" y="109"/>
      <point x="1024" y="252.242"/>
      <point x="1024" y="507" type="curve" smooth="yes"/>
      <point x="1024" y="631" type="line" smooth="yes"/>
      <point x="1024" y="854.651"/>
      <point x="920.429" y="966"/>
      <point x="734" y="966" type="curve" smooth="yes"/>
      <point x="552.205" y="966"/>
      <point x="451" y="866.613"/>
      <point x="451" y="665" type="curve" smooth="yes"/>
      <point x="451" y="536" type="line" smooth="yes"/>
      <point x="451" y="400.504"/>
      <point x="511.455" y="327"/>
      <point x="622" y="327" type="curve" smooth="yes"/>
      <point x="731.112" y="327"/>
      <point x="788" y="389.333"/>
      <point x="788" y="514" type="curve" smooth="yes"/>
      <point x="788" y="667" type="line" smooth="yes"/>
      <point x="788" y="726.815"/>
      <point x="769.849" y="752"/>
      <point x="735" y="752" type="curve" smooth="yes"/>
      <point x="699.583" y="752"/>
      <point x="684" y="722.807"/>
      <point x="684" y="666" type="curve" smooth="yes"/>
      <point x="684" y="587" type="line" smooth="yes"/>
      <point x="684" y="537.735"/>
      <point x="697.636" y="519.388"/>
      <point x="729" y="519" type="curve"/>
      <point x="729" y="423" type="line"/>
      <point x="714" y="410"/>
      <point x="689" y="402"/>
      <point x="663" y="402" type="curve" smooth="yes"/>
      <point x="578.333" y="402"/>
      <point x="536" y="462"/>
      <point x="536" y="575" type="curve" smooth="yes"/>
      <point x="536" y="659" type="line" smooth="yes"/>
      <point x="536" y="810"/>
      <point x="607.724" y="881"/>
      <point x="734" y="881" type="curve" smooth="yes"/>
      <point x="864.644" y="881"/>
      <point x="937" y="802"/>
      <point x="937" y="641" type="curve" smooth="yes"/>
      <point x="937" y="510" type="line" smooth="yes"/>
      <point x="937" y="303.409"/>
      <point x="825.459" y="195"/>
      <point x="622" y="195" type="curve" smooth="yes"/>
      <point x="414.593" y="195"/>
      <point x="302" y="313"/>
      <point x="302" y="533" type="curve" smooth="yes"/>
      <point x="302" y="663" type="line" smooth="yes"/>
      <point x="302" y="946.502"/>
      <point x="460.467" y="1099"/>
      <point x="734" y="1099" type="curve" smooth="yes"/>
      <point x="1015.56" y="1099"/>
      <point x="1174" y="934.5"/>
      <point x="1174" y="629" type="curve" smooth="yes"/>
    </contour>
  </outline>
</glyph>
<glyph name="vowelUu.kn" format="2">
  <advance width="2296"/>
  <unicode hex="0C8A"/>
  <outline>
    <contour>
      <point x="1575" y="593" type="line"/>
      <point x="1575" y="265" type="line" smooth="yes"/>
      <point x="1575" y="77"/>
      <point x="1488" y="-21"/>
      <point x="1316" y="-21" type="curve" smooth="yes"/>
      <point x="1145" y="-21"/>
      <point x="1057" y="77"/>
      <point x="1057" y="265" type="curve" smooth="yes"/>
      <point x="1057" y="646" type="line"/>
      <point x="1226" y="636" type="line"/>
      <point x="1226" y="262" type="line" smooth="yes"/>
      <point x="1226" y="175"/>
      <point x="1254" y="133"/>
      <point x="1316" y="133" type="curve" smooth="yes"/>
      <point x="1377" y="133"/>
      <point x="1406" y="176"/>
      <point x="1406" y="262" type="curve" smooth="yes"/>
      <point x="1406" y="593" type="line"/>
    </contour>
    <contour>
      <point x="339" y="1220" type="curve" smooth="yes"/>
      <point x="503" y="1220"/>
      <point x="585" y="1126"/>
      <point x="585" y="937" type="curve" smooth="yes"/>
      <point x="585" y="726" type="line" smooth="yes"/>
      <point x="585" y="566"/>
      <point x="526" y="488"/>
      <point x="406" y="488" type="curve" smooth="yes"/>
      <point x="326" y="488"/>
      <point x="278" y="527"/>
      <point x="260" y="588" type="curve"/>
      <point x="233" y="588" type="line"/>
      <point x="235" y="748" type="line"/>
      <point x="247" y="670"/>
      <point x="280" y="628"/>
      <point x="343" y="628" type="curve" smooth="yes"/>
      <point x="389" y="628"/>
      <point x="418" y="656"/>
      <point x="418" y="739" type="curve" smooth="yes"/>
      <point x="418" y="937" type="line" smooth="yes"/>
      <point x="418" y="1028"/>
      <point x="393" y="1070"/>
      <point x="336" y="1070" type="curve" smooth="yes"/>
      <point x="278" y="1070"/>
      <point x="252" y="1028"/>
      <point x="252" y="937" type="curve" smooth="yes"/>
      <point x="252" y="643" type="line"/>
      <point x="86" y="637" type="line"/>
      <point x="86" y="920" type="line" smooth="yes"/>
      <point x="86" y="1122"/>
      <point x="172" y="1220"/>
    </contour>
    <contour>
      <point x="254" y="423" type="line" smooth="yes"/>
      <point x="254" y="232"/>
      <point x="331.661" y="137"/>
      <point x="483" y="137" type="curve" smooth="yes"/>
      <point x="627.335" y="137"/>
      <point x="700" y="234"/>
      <point x="700" y="423" type="curve" smooth="yes"/>
      <point x="700" y="929" type="line" smooth="yes"/>
      <point x="700" y="1124"/>
      <point x="789" y="1219"/>
      <point x="963" y="1219" type="curve" smooth="yes"/>
      <point x="1138" y="1219"/>
      <point x="1226" y="1124"/>
      <point x="1226" y="929" type="curve" smooth="yes"/>
      <point x="1226" y="593" type="line"/>
      <point x="1057" y="593" type="line"/>
      <point x="1057" y="931" type="line" smooth="yes"/>
      <point x="1057" y="1024"/>
      <point x="1027" y="1065"/>
      <point x="963" y="1065" type="curve" smooth="yes"/>
      <point x="898" y="1065"/>
      <point x="869" y="1024"/>
      <point x="869" y="931" type="curve" smooth="yes"/>
      <point x="869" y="415" type="line" smooth="yes"/>
      <point x="869" y="125"/>
      <point x="741.331" y="-21"/>
      <point x="483" y="-21" type="curve" smooth="yes"/>
      <point x="218.666" y="-21"/>
      <point x="86" y="126"/>
      <point x="86" y="423" type="curve" smooth="yes"/>
      <point x="86" y="649" type="line"/>
      <point x="254" y="655" type="line"/>
    </contour>
    <contour>
      <point x="1809" y="1220" type="curve" smooth="yes"/>
      <point x="2073" y="1220"/>
      <point x="2209" y="1072"/>
      <point x="2209" y="782" type="curve" smooth="yes"/>
      <point x="2209" y="534" type="line"/>
      <point x="2041" y="538" type="line"/>
      <point x="2041" y="778" type="line" smooth="yes"/>
      <point x="2041" y="964"/>
      <point x="1971" y="1063"/>
      <point x="1809" y="1063" type="curve" smooth="yes"/>
      <point x="1646" y="1063"/>
      <point x="1575" y="967"/>
      <point x="1575" y="779" type="curve" smooth="yes"/>
      <point x="1575" y="579" type="line"/>
      <point x="1406" y="579" type="line"/>
      <point x="1406" y="782" type="line" smooth="yes"/>
      <point x="1406" y="1072"/>
      <point x="1542" y="1220"/>
    </contour>
    <contour>
      <point x="2209" y="281" type="line" smooth="yes"/>
      <point x="2209" y="78"/>
      <point x="2124" y="-21"/>
      <point x="1957" y="-21" type="curve" smooth="yes"/>
      <point x="1789" y="-21"/>
      <point x="1707" y="74"/>
      <point x="1707" y="264" type="curve" smooth="yes"/>
      <point x="1707" y="464" type="line" smooth="yes"/>
      <point x="1707" y="634"/>
      <point x="1766" y="714"/>
      <point x="1890" y="714" type="curve" smooth="yes"/>
      <point x="1976" y="714"/>
      <point x="2018" y="671"/>
      <point x="2035" y="601" type="curve"/>
      <point x="2062" y="601" type="line"/>
      <point x="2060" y="444" type="line"/>
      <point x="2048" y="527"/>
      <point x="2015" y="570"/>
      <point x="1954" y="570" type="curve" smooth="yes"/>
      <point x="1904" y="570"/>
      <point x="1873" y="541"/>
      <point x="1873" y="453" type="curve" smooth="yes"/>
      <point x="1873" y="263" type="line" smooth="yes"/>
      <point x="1873" y="171"/>
      <point x="1899" y="129"/>
      <point x="1958" y="129" type="curve" smooth="yes"/>
      <point x="2016" y="129"/>
      <point x="2043" y="171"/>
      <point x="2043" y="263" type="curve" smooth="yes"/>
      <point x="2043" y="545" type="line"/>
      <point x="2209" y="542" type="line"/>
    </contour>
  </outline>
</glyph>
<glyph name="Ja.kn" format="2">
  <advance width="1036"/>
  <unicode hex="0C9C"/>
  <anchor x="520" y="0" name="nukta"/>
  <outline>
    <contour>
      <point x="716" y="1193" type="line"/>
      <point x="752.818" y="1133.04"/>
      <point x="780" y="1040.57"/>
      <point x="780" y="942" type="curve" smooth="yes"/>
      <point x="780" y="902" type="line" smooth="yes"/>
      <point x="780" y="809.07"/>
      <point x="744.673" y="765"/>
      <point x="675" y="765" type="curve" smooth="yes"/>
      <point x="606.645" y="765"/>
      <point x="569" y="810.028"/>
      <point x="569" y="902" type="curve" smooth="yes"/>
      <point x="569" y="953" type="line"/>
      <point x="493" y="881" type="line"/>
      <point x="493" y="859" type="line" smooth="yes"/>
      <point x="493" y="698.92"/>
      <point x="559.78" y="614"/>
      <point x="708" y="614" type="curve" smooth="yes"/>
      <point x="863.865" y="614"/>
      <point x="945" y="710.048"/>
      <point x="945" y="889" type="curve" smooth="yes"/>
      <point x="945" y="929" type="line" smooth="yes"/>
      <point x="945" y="1037"/>
      <point x="921" y="1126"/>
      <point x="876" y="1193" type="curve"/>
    </contour>
    <contour>
      <point x="801" y="305" type="curve" smooth="yes"/>
      <point x="801" y="282" type="line" smooth="yes"/>
      <point x="801" y="188"/>
      <point x="769.973" y="142"/>
      <point x="704" y="142" type="curve" smooth="yes"/>
      <point x="639" y="142"/>
      <point x="608.629" y="186.044"/>
      <point x="605" y="281" type="curve" smooth="yes"/>
      <point x="599" y="438" type="line"/>
      <point x="516" y="438" type="line"/>
      <point x="521" y="170" type="line"/>
      <point x="528.838" y="43.2266"/>
      <point x="601.102" y="-21"/>
      <point x="732" y="-21" type="curve" smooth="yes"/>
      <point x="888.283" y="-21"/>
      <point x="970" y="73"/>
      <point x="970" y="264" type="curve" smooth="yes"/>
      <point x="970" y="287" type="line" smooth="yes"/>
      <point x="970" y="353"/>
      <point x="961" y="414"/>
      <point x="942" y="467" type="curve"/>
      <point x="781" y="467" type="line"/>
      <point x="795" y="418"/>
      <point x="801" y="358"/>
    </contour>
    <contour>
      <point x="322" y="1220" type="curve" smooth="yes"/>
      <point x="161.322" y="1220"/>
      <point x="79" y="1126.15"/>
      <point x="79" y="949" type="curve" smooth="yes"/>
      <point x="79" y="901" type="line" smooth="yes"/>
      <point x="79" y="820"/>
      <point x="94" y="748"/>
      <point x="117" y="705" type="curve"/>
      <point x="275" y="705" type="line"/>
      <point x="257.042" y="752.492"/>
      <point x="243" y="816.152"/>
      <point x="243" y="898" type="curve" smooth="yes"/>
      <point x="243" y="948" type="line" smooth="yes"/>
      <point x="243" y="1029.64"/>
      <point x="269.957" y="1068"/>
      <point x="323" y="1068" type="curve" smooth="yes"/>
      <point x="376.043" y="1068"/>
      <point x="403" y="1028.66"/>
      <point x="403" y="948" type="curve" smooth="yes"/>
      <point x="403" y="906" type="line" smooth="yes"/>
      <point x="403" y="808.632"/>
      <point x="377.068" y="749.838"/>
      <point x="303" y="684" type="curve" smooth="yes"/>
      <point x="231" y="620" type="line" smooth="yes"/>
      <point x="118.452" y="519.957"/>
      <point x="61" y="429.893"/>
      <point x="61" y="285" type="curve" smooth="yes"/>
      <point x="61" y="262" type="line" smooth="yes"/>
      <point x="61" y="72"/>
      <point x="145.708" y="-21"/>
      <point x="309" y="-21" type="curve" smooth="yes"/>
      <point x="434.585" y="-21"/>
      <point x="506.208" y="37.8936"/>
      <point x="517" y="152" type="curve"/>
      <point x="529" y="152" type="line"/>
      <point x="524" y="438" type="line"/>
      <point x="441" y="438" type="line"/>
      <point x="435" y="282" type="line" smooth="yes"/>
      <point x="431.31" y="186.051"/>
      <point x="399.686" y="142"/>
      <point x="332" y="142" type="curve" smooth="yes"/>
      <point x="264.667" y="142"/>
      <point x="231" y="185"/>
      <point x="231" y="277" type="curve" smooth="yes"/>
      <point x="231" y="294" type="line" smooth="yes"/>
      <point x="231" y="386.299"/>
      <point x="264.263" y="436.554"/>
      <point x="345" y="511" type="curve" smooth="yes"/>
      <point x="422" y="582" type="line" smooth="yes"/>
      <point x="519.222" y="671.646"/>
      <point x="569" y="768.044"/>
      <point x="569" y="904" type="curve" smooth="yes"/>
      <point x="569" y="946" type="line" smooth="yes"/>
      <point x="569" y="1127.28"/>
      <point x="485.322" y="1220"/>
    </contour>
  </outline>
  <guideline angle="90" x="1517" y="0"/>
  <guideline angle="90" x="1045" y="0"/>
</glyph>
<glyph name="Ttha.kn" format="2">
  <advance width="882"/>
  <unicode hex="0CA0"/>
  <outline>
    <contour>
      <point x="237" y="1074" type="line"/>
      <point x="237" y="1041" type="line"/>
      <point x="136.688" y="1011.89"/>
      <point x="87" y="919.671"/>
      <point x="87" y="745" type="curve" smooth="yes"/>
      <point x="87" y="378" type="line" smooth="yes"/>
      <point x="87" y="108.278"/>
      <point x="204.308" y="-24"/>
      <point x="441" y="-24" type="curve" smooth="yes"/>
      <point x="678.082" y="-24"/>
      <point x="793" y="108.278"/>
      <point x="793" y="378" type="curve" smooth="yes"/>
      <point x="793" y="745" type="line" smooth="yes"/>
      <point x="793" y="919.079"/>
      <point x="740" y="1010.99"/>
      <point x="633" y="1040" type="curve"/>
      <point x="633" y="1074" type="line"/>
    </contour>
    <contour>
      <point x="87" y="1193" type="line"/>
      <point x="87" y="1046" type="line"/>
      <point x="578" y="1046" type="line"/>
      <point x="578" y="1193" type="line"/>
    </contour>
    <contour>
      <point x="440" y="760" type="curve" smooth="yes"/>
      <point x="389.074" y="760"/>
      <point x="363" y="722.686"/>
      <point x="363" y="641" type="curve" smooth="yes"/>
      <point x="363" y="555" type="line" smooth="yes"/>
      <point x="363" y="473.319"/>
      <point x="389.074" y="435"/>
      <point x="440" y="435" type="curve" smooth="yes"/>
      <point x="491.676" y="435"/>
      <point x="517" y="472.314"/>
      <point x="517" y="554" type="curve" smooth="yes"/>
      <point x="517" y="641" type="line" smooth="yes"/>
      <point x="517" y="722.686"/>
      <point x="491.676" y="760"/>
    </contour>
    <contour>
      <point x="623" y="799" type="curve" smooth="yes"/>
      <point x="623" y="382" type="line" smooth="yes"/>
      <point x="623" y="216.315"/>
      <point x="564.5" y="134"/>
      <point x="441" y="134" type="curve" smooth="yes"/>
      <point x="317.238" y="134"/>
      <point x="257" y="216.315"/>
      <point x="257" y="382" type="curve" smooth="yes"/>
      <point x="257" y="799" type="line" smooth="yes"/>
      <point x="257" y="963.349"/>
      <point x="317.238" y="1046"/>
      <point x="441" y="1046" type="curve" smooth="yes"/>
      <point x="564.5" y="1046"/>
      <point x="623" y="963.349"/>
    </contour>
    <contour>
      <point x="618" y="1513" type="line"/>
      <point x="640" y="1442"/>
      <point x="652" y="1375"/>
      <point x="652" y="1302" type="curve" smooth="yes"/>
      <point x="652" y="1225"/>
      <point x="625" y="1193"/>
      <point x="552" y="1193" type="curve" smooth="yes"/>
      <point x="517" y="1193" type="line"/>
      <point x="545" y="1045" type="line"/>
      <point x="619" y="1045" type="line" smooth="yes"/>
      <point x="742" y="1045"/>
      <point x="809" y="1121.33"/>
      <point x="809" y="1270" type="curve" smooth="yes"/>
      <point x="809" y="1357"/>
      <point x="791" y="1438"/>
      <point x="756" y="1513" type="curve"/>
    </contour>
  </outline>
  <guideline angle="0" x="0" y="1007"/>
  <guideline angle="90" x="993" y="0"/>
  <guideline angle="90" x="529" y="0"/>
  <guideline angle="90" x="1621" y="0"/>
  <guideline angle="90" x="1304" y="0"/>
</glyph>
<glyph name="Va.kn" format="2">
  <advance width="1054"/>
  <unicode hex="0CB5"/>
  <outline>
    <contour>
      <point x="739" y="-21" type="curve" smooth="yes"/>
      <point x="888.687" y="-21"/>
      <point x="967" y="77.0066"/>
      <point x="967" y="274" type="curve" smooth="yes"/>
      <point x="967" y="525" type="line" smooth="yes"/>
      <point x="967" y="867.333"/>
      <point x="885.97" y="1010.05"/>
      <point x="712" y="1039" type="curve"/>
      <point x="712" y="1076" type="line"/>
      <point x="358" y="1074" type="line"/>
      <point x="358" y="1045" type="line"/>
      <point x="678.734" y="1045"/>
      <point x="795" y="914"/>
      <point x="795" y="526" type="curve" smooth="yes"/>
      <point x="795" y="276" type="line" smooth="yes"/>
      <point x="795" y="184.114"/>
      <point x="766.032" y="142"/>
      <point x="709" y="142" type="curve" smooth="yes"/>
      <point x="645" y="142"/>
      <point x="615.816" y="186.052"/>
      <point x="612" y="282" type="curve" smooth="yes"/>
      <point x="605" y="458" type="line"/>
      <point x="449" y="458" type="line"/>
      <point x="442" y="283" type="line" smooth="yes"/>
      <point x="438.122" y="186.058"/>
      <point x="409.653" y="140"/>
      <point x="343" y="140" type="curve" smooth="yes"/>
      <point x="277.327" y="140"/>
      <point x="244" y="186"/>
      <point x="244" y="284" type="curve" smooth="yes"/>
      <point x="244" y="440" type="line" smooth="yes"/>
      <point x="244" y="520.633"/>
      <point x="269" y="558"/>
      <point x="326" y="558" type="curve" smooth="yes"/>
      <point x="350" y="558"/>
      <point x="368" y="552.632"/>
      <point x="390" y="541" type="curve"/>
      <point x="381" y="688" type="line"/>
      <point x="355" y="704"/>
      <point x="324" y="712"/>
      <point x="281" y="712" type="curve" smooth="yes"/>
      <point x="144" y="712"/>
      <point x="77" y="623"/>
      <point x="77" y="444" type="curve" smooth="yes"/>
      <point x="77" y="275" type="line" smooth="yes"/>
      <point x="77" y="77"/>
      <point x="159.723" y="-21"/>
      <point x="317" y="-21" type="curve" smooth="yes"/>
      <point x="442.958" y="-21"/>
      <point x="513.259" y="37.8421"/>
      <point x="524" y="151" type="curve"/>
      <point x="530" y="151" type="line"/>
      <point x="540.844" y="37.8421"/>
      <point x="613.797" y="-21"/>
    </contour>
    <contour>
      <point x="743" y="1045" type="line"/>
      <point x="743" y="1193" type="line"/>
      <point x="112" y="1193" type="line"/>
      <point x="112" y="1045" type="line"/>
    </contour>
    <contour>
      <point x="779" y="1513" type="line"/>
      <point x="801" y="1442"/>
      <point x="813" y="1375"/>
      <point x="813" y="1302" type="curve" smooth="yes"/>
      <point x="813" y="1225"/>
      <point x="786" y="1193"/>
      <point x="713" y="1193" type="curve" smooth="yes"/>
      <point x="678" y="1193" type="line"/>
      <point x="706" y="1045" type="line"/>
      <point x="780" y="1045" type="line" smooth="yes"/>
      <point x="903" y="1045"/>
      <point x="970" y="1121.33"/>
      <point x="970" y="1270" type="curve" smooth="yes"/>
      <point x="970" y="1357"/>
      <point x="952" y="1438"/>
      <point x="917" y="1513" type="curve"/>
    </contour>
  </outline>
  <guideline angle="90" x="409" y="0"/>
  <guideline angle="90" x="101" y="0"/>
  <guideline angle="0" x="0" y="955"/>
</glyph>
<glyph name="Avagraha" format="2">
  <advance width="624"/>
  <unicode hex="0CBD"/>
  <outline>
    <contour>
      <point x="526" y="1193" type="line"/>
      <point x="334" y="1193" type="line" smooth="yes"/>
      <point x="147" y="1193"/>
      <point x="46" y="1105.34"/>
      <point x="46" y="929" type="curve" smooth="yes"/>
      <point x="46" y="922" type="line" smooth="yes"/>
      <point x="46" y="606"/>
      <point x="392" y="591"/>
      <point x="392" y="323" type="curve" smooth="yes"/>
      <point x="392" y="304" type="line" smooth="yes"/>
      <point x="392" y="189.925"/>
      <point x="345.98" y="135"/>
      <point x="253" y="135" type="curve" smooth="yes"/>
      <point x="169.048" y="135"/>
      <point x="90.439" y="164.767"/>
      <point x="38" y="205" type="curve"/>
      <point x="62" y="33" type="line"/>
      <point x="120.182" y="-3.44444"/>
      <point x="197.132" y="-23"/>
      <point x="279" y="-23" type="curve" smooth="yes"/>
      <point x="465.968" y="-23"/>
      <point x="564" y="85.7993"/>
      <point x="564" y="292" type="curve" smooth="yes"/>
      <point x="564" y="311" type="line" smooth="yes"/>
      <point x="564" y="669"/>
      <point x="218" y="702"/>
      <point x="218" y="917" type="curve" smooth="yes"/>
      <point x="218" y="921" type="line" smooth="yes"/>
      <point x="218" y="1004.31"/>
      <point x="262.328" y="1044"/>
      <point x="353" y="1044" type="curve" smooth="yes"/>
      <point x="526" y="1044" type="line"/>
    </contour>
  </outline>
  <guideline angle="90" x="899" y="0"/>
  <guideline angle="0" x="0" y="1331"/>
</glyph>
<glyph name="matraRuu.kn" format="2">
  <advance width="498"/>
  <unicode hex="0CC4"/>
  <outline>
    <contour>
      <point x="-14.043" y="164.685" type="line"/>
      <point x="29.1931" y="67.5073"/>
      <point x="56" y="-42.347"/>
      <point x="56" y="-224" type="curve" smooth="yes"/>
      <point x="56" y="-452" type="line" smooth="yes"/>
      <point x="56" y="-570.667"/>
      <point x="7.98676" y="-630"/>
      <point x="-89" y="-630" type="curve" smooth="yes"/>
      <point x="-185.987" y="-630"/>
      <point x="-234" y="-570.667"/>
      <point x="-234" y="-452" type="curve" smooth="yes"/>
      <point x="-234" y="-394" type="line"/>
      <point x="-359" y="-398" type="line"/>
      <point x="-359" y="-455" type="line" smooth="yes"/>
      <point x="-359" y="-642.816"/>
      <point x="-264.862" y="-742"/>
      <point x="-89" y="-742" type="curve" smooth="yes"/>
      <point x="87.5134" y="-742"/>
      <point x="182" y="-642.816"/>
      <point x="182" y="-455" type="curve" smooth="yes"/>
      <point x="182" y="-225" type="line" smooth="yes"/>
      <point x="182" y="-34.1003"/>
      <point x="151.25" y="80.6427"/>
      <point x="100" y="170" type="curve"/>
      <point x="-12.4449" y="170" type="line"/>
    </contour>
    <contour>
      <point x="568" y="-164" type="line"/>
      <point x="568" y="-103" type="line" smooth="yes"/>
      <point x="568" y="77.9775"/>
      <point x="482" y="170"/>
      <point x="312" y="170" type="curve" smooth="yes"/>
      <point x="50" y="170" type="line"/>
      <point x="62" y="63" type="line"/>
      <point x="305" y="63" type="line" smooth="yes"/>
      <point x="402.113" y="63"/>
      <point x="446" y="6.68605"/>
      <point x="446" y="-104" type="curve" smooth="yes"/>
      <point x="446" y="-164" type="line"/>
    </contour>
    <contour>
      <point x="448" y="-160" type="line"/>
      <point x="448" y="-283" type="line" smooth="yes"/>
      <point x="448" y="-326.789"/>
      <point x="436.6" y="-347"/>
      <point x="410" y="-347" type="curve" smooth="yes"/>
      <point x="383.235" y="-347"/>
      <point x="371" y="-326.789"/>
      <point x="371" y="-283" type="curve" smooth="yes"/>
      <point x="371" y="-226" type="line" smooth="yes"/>
      <point x="371" y="-187.952"/>
      <point x="384.5" y="-175"/>
      <point x="407" y="-175" type="curve" smooth="yes"/>
      <point x="433.053" y="-175"/>
      <point x="445.684" y="-189.855"/>
      <point x="452" y="-218" type="curve"/>
      <point x="457" y="-127" type="line"/>
      <point x="442" y="-127" type="line"/>
      <point x="431.602" y="-92.1667"/>
      <point x="406.678" y="-72"/>
      <point x="360" y="-72" type="curve" smooth="yes"/>
      <point x="289.346" y="-72"/>
      <point x="252" y="-119.631"/>
      <point x="252" y="-218" type="curve" smooth="yes"/>
      <point x="252" y="-288" type="line" smooth="yes"/>
      <point x="252" y="-399.038"/>
      <point x="305.04" y="-453"/>
      <point x="408" y="-453" type="curve" smooth="yes"/>
      <point x="513.641" y="-453"/>
      <point x="568" y="-396.103"/>
      <point x="568" y="-273" type="curve" smooth="yes"/>
      <point x="568" y="-157" type="line"/>
    </contour>
    <contour>
      <point x="-192" y="-111.167" type="curve" smooth="yes"/>
      <point x="-302.013" y="-111.167"/>
      <point x="-358.667" y="-169.333"/>
      <point x="-358.667" y="-294" type="curve" smooth="yes"/>
      <point x="-358.667" y="-401.333" type="line"/>
      <point x="-234.333" y="-398.667" type="line"/>
      <point x="-234.333" y="-283" type="line" smooth="yes"/>
      <point x="-234.333" y="-239.267"/>
      <point x="-222.111" y="-219"/>
      <point x="-194.333" y="-219" type="curve" smooth="yes"/>
      <point x="-165.968" y="-219"/>
      <point x="-153.167" y="-239.267"/>
      <point x="-153.167" y="-283" type="curve" smooth="yes"/>
      <point x="-153.167" y="-348.333" type="line" smooth="yes"/>
      <point x="-153.167" y="-387.965"/>
      <point x="-166.344" y="-402.333"/>
      <point x="-189.833" y="-402.333" type="curve" smooth="yes"/>
      <point x="-221.808" y="-402.333"/>
      <point x="-238.777" y="-381.667"/>
      <point x="-247.167" y="-340.333" type="curve"/>
      <point x="-257.5" y="-439.833" type="line"/>
      <point x="-229.5" y="-439.833" type="line"/>
      <point x="-219.253" y="-478.128"/>
      <point x="-188.513" y="-500.167"/>
      <point x="-142.167" y="-500.167" type="curve" smooth="yes"/>
      <point x="-68.1971" y="-500.167"/>
      <point x="-29.5" y="-453.009"/>
      <point x="-29.5" y="-350.833" type="curve" smooth="yes"/>
      <point x="-29.5" y="-281.167" type="line" smooth="yes"/>
      <point x="-29.5" y="-167"/>
      <point x="-84.3459" y="-111.167"/>
    </contour>
  </outline>
  <guideline angle="0" x="0" y="-1153"/>
  <guideline angle="0" x="0" y="-640"/>
</glyph>
<glyph name="matraE.kn" format="2">
  <advance width="609"/>
  <unicode hex="0CC6"/>
  <outline>
    <contour>
      <point x="319" y="1045" type="line" smooth="yes"/>
      <point x="465.789" y="1045"/>
      <point x="536" y="1129.45"/>
      <point x="536" y="1306" type="curve" smooth="yes"/>
      <point x="536" y="1404" type="line" smooth="yes"/>
      <point x="536" y="1560"/>
      <point x="466.686" y="1636"/>
      <point x="325" y="1636" type="curve" smooth="yes"/>
      <point x="185.667" y="1636"/>
      <point x="116" y="1563"/>
      <point x="116" y="1417" type="curve" smooth="yes"/>
      <point x="116" y="1398" type="line" smooth="yes"/>
      <point x="116" y="1349.61"/>
      <point x="123.806" y="1302.22"/>
      <point x="137" y="1272" type="curve"/>
      <point x="283" y="1272" type="line"/>
      <point x="274" y="1305.74"/>
      <point x="269" y="1357.28"/>
      <point x="269" y="1395" type="curve" smooth="yes"/>
      <point x="269" y="1410" type="line" smooth="yes"/>
      <point x="269" y="1466.23"/>
      <point x="287.136" y="1494"/>
      <point x="326" y="1494" type="curve" smooth="yes"/>
      <point x="365.03" y="1494"/>
      <point x="382" y="1466.55"/>
      <point x="382" y="1411" type="curve" smooth="yes"/>
      <point x="382" y="1317" type="line" smooth="yes"/>
      <point x="382" y="1229.09"/>
      <point x="351.036" y="1193"/>
      <point x="280" y="1193" type="curve" smooth="yes"/>
      <point x="210" y="1193" type="line"/>
      <point x="210" y="1045" type="line"/>
    </contour>
  </outline>
</glyph>
<glyph name="Muru.kn" format="2">
  <advance width="870"/>
  <unicode hex="0CE9"/>
  <outline>
    <contour>
      <point x="817" y="-18" type="curve" smooth="yes"/>
      <point x="851" y="-18" type="line"/>
      <point x="873" y="142" type="line"/>
      <point x="822" y="142" type="line" smooth="yes"/>
      <point x="694" y="142"/>
      <point x="633" y="199.711"/>
      <point x="633" y="335" type="curve" smooth="yes"/>
      <point x="633" y="409" type="line"/>
      <point x="560" y="409" type="line"/>
      <point x="560" y="244" type="line" smooth="yes"/>
      <point x="560" y="70"/>
      <point x="646.687" y="-18"/>
    </contour>
    <contour>
      <point x="340" y="-21" type="curve" smooth="yes"/>
      <point x="508.038" y="-21"/>
      <point x="597" y="70.5626"/>
      <point x="597" y="281" type="curve"/>
      <point x="547" y="270" type="line"/>
      <point x="634" y="271" type="line"/>
      <point x="634" y="295"/>
      <point x="634" y="358"/>
      <point x="634" y="385" type="curve" smooth="yes"/>
      <point x="634" y="913" type="line" smooth="yes"/>
      <point x="634" y="1116.32"/>
      <point x="539.661" y="1220"/>
      <point x="356" y="1220" type="curve" smooth="yes"/>
      <point x="178" y="1220"/>
      <point x="85" y="1119.59"/>
      <point x="85" y="928" type="curve" smooth="yes"/>
      <point x="85" y="895" type="line" smooth="yes"/>
      <point x="85" y="804.832"/>
      <point x="98" y="740.199"/>
      <point x="121" y="694" type="curve"/>
      <point x="279" y="694" type="line"/>
      <point x="262" y="738.14"/>
      <point x="249" y="801.779"/>
      <point x="249" y="886" type="curve" smooth="yes"/>
      <point x="249" y="922" type="line" smooth="yes"/>
      <point x="249" y="1018.34"/>
      <point x="283.679" y="1068"/>
      <point x="357" y="1068" type="curve" smooth="yes"/>
      <point x="432.303" y="1068"/>
      <point x="465" y="1019.33"/>
      <point x="465" y="922" type="curve" smooth="yes"/>
      <point x="465" y="405" type="line"/>
      <point x="466.333" y="385"/>
      <point x="466.333" y="396"/>
      <point x="467" y="376" type="curve"/>
      <point x="467" y="368"/>
      <point x="467" y="302"/>
      <point x="467" y="296" type="curve" smooth="yes"/>
      <point x="467" y="182.069"/>
      <point x="429.317" y="128"/>
      <point x="348" y="128" type="curve" smooth="yes"/>
      <point x="270.017" y="128"/>
      <point x="232" y="176.675"/>
      <point x="232" y="275" type="curve" smooth="yes"/>
      <point x="232" y="322" type="line" smooth="yes"/>
      <point x="232" y="416.899"/>
      <point x="268.991" y="462"/>
      <point x="342" y="462" type="curve" smooth="yes"/>
      <point x="411" y="462"/>
      <point x="454" y="417.346"/>
      <point x="474" y="333" type="curve"/>
      <point x="481" y="448" type="line"/>
      <point x="470.969" y="542.023"/>
      <point x="414.489" y="605"/>
      <point x="305" y="605" type="curve" smooth="yes"/>
      <point x="148.43" y="605"/>
      <point x="68" y="513"/>
      <point x="68" y="332" type="curve" smooth="yes"/>
      <point x="68" y="269" type="line" smooth="yes"/>
      <point x="68" y="78.6875"/>
      <point x="160" y="-21"/>
    </contour>
  </outline>
</glyph>
<glyph name="BamatraI.kn.1" format="2">
  <advance width="1099"/>
  <outline>
    <contour>
      <point x="322" y="1220" type="curve" smooth="yes"/>
      <point x="161.322" y="1220"/>
      <point x="79" y="1126.15"/>
      <point x="79" y="949" type="curve" smooth="yes"/>
      <point x="79" y="901" type="line" smooth="yes"/>
      <point x="79" y="820"/>
      <point x="94" y="748"/>
      <point x="117" y="705" type="curve"/>
      <point x="275" y="705" type="line"/>
      <point x="257.042" y="752.492"/>
      <point x="243" y="816.152"/>
      <point x="243" y="898" type="curve" smooth="yes"/>
      <point x="243" y="948" type="line" smooth="yes"/>
      <point x="243" y="1029.64"/>
      <point x="269.957" y="1068"/>
      <point x="323" y="1068" type="curve" smooth="yes"/>
      <point x="376.043" y="1068"/>
      <point x="403" y="1028.66"/>
      <point x="403" y="948" type="curve" smooth="yes"/>
      <point x="403" y="906" type="line" smooth="yes"/>
      <point x="403" y="808.632"/>
      <point x="377.068" y="749.838"/>
      <point x="303" y="684" type="curve" smooth="yes"/>
      <point x="231" y="620" type="line" smooth="yes"/>
      <point x="118.452" y="519.957"/>
      <point x="61" y="429.893"/>
      <point x="61" y="285" type="curve" smooth="yes"/>
      <point x="61" y="272" type="line" smooth="yes"/>
      <point x="61" y="75.2862"/>
      <point x="148.782" y="-21"/>
      <point x="318" y="-21" type="curve" smooth="yes"/>
      <point x="448.415" y="-21"/>
      <point x="522.792" y="39.5958"/>
      <point x="534" y="157" type="curve"/>
      <point x="546" y="157" type="line"/>
      <point x="541" y="438" type="line"/>
      <point x="458" y="438" type="line"/>
      <point x="452" y="292" type="line" smooth="yes"/>
      <point x="447.776" y="189.205"/>
      <point x="413.943" y="142"/>
      <point x="341" y="142" type="curve" smooth="yes"/>
      <point x="267.667" y="142"/>
      <point x="231" y="188.185"/>
      <point x="231" y="287" type="curve" smooth="yes"/>
      <point x="231" y="294" type="line" smooth="yes"/>
      <point x="231" y="386.299"/>
      <point x="264.263" y="436.554"/>
      <point x="345" y="511" type="curve" smooth="yes"/>
      <point x="422" y="582" type="line" smooth="yes"/>
      <point x="519.222" y="671.646"/>
      <point x="569" y="768.044"/>
      <point x="569" y="904" type="curve" smooth="yes"/>
      <point x="569" y="946" type="line" smooth="yes"/>
      <point x="569" y="1127.28"/>
      <point x="485.322" y="1220"/>
    </contour>
    <contour>
      <point x="1004" y="289" type="curve" smooth="yes"/>
      <point x="1003.75" y="1167" type="line" smooth="yes"/>
      <point x="1003.7" y="1349.39"/>
      <point x="926.084" y="1436"/>
      <point x="770.751" y="1436" type="curve" smooth="yes"/>
      <point x="618.742" y="1436"/>
      <point x="543.751" y="1354.02"/>
      <point x="543.751" y="1185" type="curve" smooth="yes"/>
      <point x="543.751" y="1103" type="line" smooth="yes"/>
      <point x="543.751" y="961.9"/>
      <point x="605.452" y="891"/>
      <point x="725.751" y="891" type="curve" smooth="yes"/>
      <point x="789.968" y="891"/>
      <point x="834.348" y="922.146"/>
      <point x="860.751" y="968" type="curve"/>
      <point x="856.751" y="1118" type="line"/>
      <point x="846.318" y="1052.95"/>
      <point x="817.864" y="1018"/>
      <point x="764.751" y="1018" type="curve" smooth="yes"/>
      <point x="723.657" y="1018"/>
      <point x="697.751" y="1042"/>
      <point x="697.751" y="1112" type="curve" smooth="yes"/>
      <point x="697.751" y="1188" type="line" smooth="yes"/>
      <point x="697.751" y="1265.19"/>
      <point x="721.801" y="1298"/>
      <point x="771.751" y="1298" type="curve" smooth="yes"/>
      <point x="822.626" y="1298"/>
      <point x="846.935" y="1265.18"/>
      <point x="845.751" y="1188" type="curve" smooth="yes"/>
      <point x="832" y="292" type="line" smooth="yes"/>
      <point x="832" y="191.286"/>
      <point x="797.737" y="142"/>
      <point x="726" y="142" type="curve" smooth="yes"/>
      <point x="657.717" y="142"/>
      <point x="626.154" y="189.226"/>
      <point x="622" y="291" type="curve" smooth="yes"/>
      <point x="616" y="438" type="line"/>
      <point x="533" y="438" type="line"/>
      <point x="540" y="157" type="line"/>
      <point x="552.168" y="39.5957"/>
      <point x="626.192" y="-21"/>
      <point x="757" y="-21" type="curve" smooth="yes"/>
      <point x="918.5" y="-21"/>
      <point x="1004" y="81.3"/>
    </contour>
  </outline>
  <guideline angle="90" x="419" y="0"/>
  <guideline angle="0" x="0" y="888"/>
</glyph>
<glyph name="Basmall1.kn" format="2">
  <outline>
    <contour>
      <point x="23" y="-120" type="curve" smooth="yes"/>
      <point x="9" y="-120"/>
      <point x="-4" y="-121"/>
      <point x="-15" y="-122" type="curve"/>
      <point x="-15" y="-229" type="line"/>
      <point x="-12" y="-229"/>
      <point x="-11" y="-229"/>
      <point x="-7" y="-229" type="curve" smooth="yes"/>
      <point x="30" y="-229"/>
      <point x="48" y="-252"/>
      <point x="48" y="-307" type="curve" smooth="yes"/>
      <point x="48" y="-567" type="line" smooth="yes"/>
      <point x="48" y="-613"/>
      <point x="32" y="-634"/>
      <point x="2" y="-634" type="curve" smooth="yes"/>
      <point x="-28" y="-634"/>
      <point x="-43.1504" y="-615.006"/>
      <point x="-45" y="-570" type="curve" smooth="yes"/>
      <point x="-48" y="-497" type="line"/>
      <point x="-111" y="-497" type="line"/>
      <point x="-105" y="-651" type="line"/>
      <point x="-98" y="-711"/>
      <point x="-54" y="-743"/>
      <point x="26" y="-743" type="curve" smooth="yes"/>
      <point x="120" y="-743"/>
      <point x="170" y="-688"/>
      <point x="170" y="-578" type="curve" smooth="yes"/>
      <point x="170" y="-299" type="line" smooth="yes"/>
      <point x="170" y="-177"/>
      <point x="126" y="-120"/>
    </contour>
    <contour>
      <point x="-226" y="-111" type="curve" smooth="yes"/>
      <point x="-327.346" y="-111"/>
      <point x="-381" y="-163"/>
      <point x="-381" y="-262" type="curve"/>
      <point x="-381" y="-262"/>
      <point x="-381" y="-272"/>
      <point x="-381" y="-272" type="curve"/>
      <point x="-381" y="-310"/>
      <point x="-373" y="-349"/>
      <point x="-359" y="-372" type="curve"/>
      <point x="-253" y="-372" type="line"/>
      <point x="-263" y="-349"/>
      <point x="-271" y="-319"/>
      <point x="-271" y="-279" type="curve"/>
      <point x="-271" y="-279"/>
      <point x="-271" y="-270"/>
      <point x="-271" y="-270" type="curve"/>
      <point x="-271" y="-231"/>
      <point x="-256" y="-212"/>
      <point x="-228" y="-212" type="curve" smooth="yes"/>
      <point x="-199" y="-212"/>
      <point x="-183" y="-231"/>
      <point x="-183" y="-270" type="curve" smooth="yes"/>
      <point x="-183" y="-275" type="line" smooth="yes"/>
      <point x="-183" y="-319"/>
      <point x="-198.817" y="-344.865"/>
      <point x="-241" y="-376" type="curve" smooth="yes"/>
      <point x="-283" y="-407" type="line" smooth="yes"/>
      <point x="-351.337" y="-457.439"/>
      <point x="-387" y="-504"/>
      <point x="-387" y="-581" type="curve" smooth="yes"/>
      <point x="-387" y="-589" type="line" smooth="yes"/>
      <point x="-387" y="-691"/>
      <point x="-334" y="-743"/>
      <point x="-236" y="-743" type="curve" smooth="yes"/>
      <point x="-159" y="-743"/>
      <point x="-118" y="-711"/>
      <point x="-109" y="-651" type="curve"/>
      <point x="-90" y="-651" type="line"/>
      <point x="-97" y="-497" type="line"/>
      <point x="-164" y="-497" type="line"/>
      <point x="-167" y="-570" type="line" smooth="yes"/>
      <point x="-168.796" y="-613.692"/>
      <point x="-185" y="-634"/>
      <point x="-218" y="-634" type="curve" smooth="yes"/>
      <point x="-250" y="-634"/>
      <point x="-266" y="-615.679"/>
      <point x="-266" y="-577" type="curve" smooth="yes"/>
      <point x="-266" y="-572" type="line" smooth="yes"/>
      <point x="-266" y="-534"/>
      <point x="-249.144" y="-509.813"/>
      <point x="-205" y="-476" type="curve" smooth="yes"/>
      <point x="-158" y="-440" type="line" smooth="yes"/>
      <point x="-100.618" y="-396.048"/>
      <point x="-71" y="-345"/>
      <point x="-71" y="-276" type="curve" smooth="yes"/>
      <point x="-71" y="-267" type="line" smooth="yes"/>
      <point x="-71" y="-165"/>
      <point x="-124.654" y="-111"/>
    </contour>
  </outline>
  <guideline angle="90" x="227" y="0"/>
  <guideline angle="0" x="0" y="-381"/>
  <guideline angle="90" x="43" y="0"/>
  <guideline angle="0" x="0" y="-269"/>
</glyph>
<glyph name="BhaHalant.kn" format="2">
  <advance width="1557"/>
  <outline>
    <component base="BaHalant.kn"/>
    <contour>
      <point x="520" y="-393" type="curve" smooth="yes"/>
      <point x="578" y="-393"/>
      <point x="606" y="-355.667"/>
      <point x="606" y="-281" type="curve" smooth="yes"/>
      <point x="606" y="-265" type="line" smooth="yes"/>
      <point x="606" y="-146"/>
      <point x="571" y="-44"/>
      <point x="520" y="32" type="curve"/>
      <point x="470" y="-44"/>
      <point x="435" y="-146"/>
      <point x="435" y="-265" type="curve" smooth="yes"/>
      <point x="435" y="-281" type="line" smooth="yes"/>
      <point x="435" y="-355.667"/>
      <point x="463" y="-393"/>
    </contour>
  </outline>
  <guideline angle="90" x="1161" y="0"/>
  <guideline angle="90" x="838" y="0"/>
  <guideline angle="90" x="419" y="0"/>
  <guideline angle="90" x="82" y="0"/>
</glyph>
<glyph name="CamatraI.kn" format="2">
  <advance width="1111"/>
  <outline>
    <contour>
      <point x="840" y="564" type="line"/>
      <point x="893" y="556" type="line"/>
      <point x="893" y="568" type="line"/>
      <point x="1048" y="564" type="line"/>
      <point x="1048" y="711" type="line"/>
      <point x="906" y="705" type="line"/>
      <point x="811" y="711" type="line"/>
      <point x="616" y="711" type="line"/>
      <point x="616" y="564" type="line"/>
    </contour>
    <contour>
      <point x="1002" y="364" type="line" smooth="yes"/>
      <point x="1002" y="463"/>
      <point x="972.36" y="543"/>
      <point x="893" y="562" type="curve"/>
      <point x="725" y="593" type="line"/>
      <point x="725" y="564" type="line"/>
      <point x="797.039" y="564"/>
      <point x="831" y="517"/>
      <point x="831" y="417" type="curve" smooth="yes"/>
      <point x="831" y="287" type="line" smooth="yes"/>
      <point x="831" y="189.643"/>
      <point x="796.737" y="142"/>
      <point x="725" y="142" type="curve" smooth="yes"/>
      <point x="656.717" y="142"/>
      <point x="624.883" y="187.63"/>
      <point x="621" y="286" type="curve" smooth="yes"/>
      <point x="615" y="438" type="line"/>
      <point x="532" y="438" type="line"/>
      <point x="539" y="154" type="line"/>
      <point x="551.056" y="38.5745"/>
      <point x="624.397" y="-21"/>
      <point x="754" y="-21" type="curve" smooth="yes"/>
      <point x="916.154" y="-21"/>
      <point x="1002" y="79.1871"/>
      <point x="1002" y="270" type="curve" smooth="yes"/>
    </contour>
    <contour>
      <point x="322" y="1220" type="curve" smooth="yes"/>
      <point x="161.322" y="1220"/>
      <point x="79" y="1126.15"/>
      <point x="79" y="949" type="curve" smooth="yes"/>
      <point x="79" y="901" type="line" smooth="yes"/>
      <point x="79" y="820"/>
      <point x="94" y="748"/>
      <point x="117" y="705" type="curve"/>
      <point x="275" y="705" type="line"/>
      <point x="257.042" y="752.492"/>
      <point x="243" y="816.152"/>
      <point x="243" y="898" type="curve" smooth="yes"/>
      <point x="243" y="948" type="line" smooth="yes"/>
      <point x="243" y="1029.64"/>
      <point x="269.957" y="1068"/>
      <point x="323" y="1068" type="curve" smooth="yes"/>
      <point x="376.043" y="1068"/>
      <point x="403" y="1028.66"/>
      <point x="403" y="948" type="curve" smooth="yes"/>
      <point x="403" y="906" type="line" smooth="yes"/>
      <point x="403" y="808.632"/>
      <point x="377.068" y="749.838"/>
      <point x="303" y="684" type="curve" smooth="yes"/>
      <point x="231" y="620" type="line" smooth="yes"/>
      <point x="118.452" y="519.957"/>
      <point x="61" y="429.893"/>
      <point x="61" y="285" type="curve" smooth="yes"/>
      <point x="61" y="267" type="line" smooth="yes"/>
      <point x="61" y="73.6431"/>
      <point x="148.44" y="-21"/>
      <point x="317" y="-21" type="curve" smooth="yes"/>
      <point x="447.415" y="-21"/>
      <point x="521.792" y="38.5745"/>
      <point x="533" y="154" type="curve"/>
      <point x="545" y="154" type="line"/>
      <point x="540" y="438" type="line"/>
      <point x="457" y="438" type="line"/>
      <point x="451" y="287" type="line" smooth="yes"/>
      <point x="447.051" y="187.621"/>
      <point x="412.943" y="142"/>
      <point x="340" y="142" type="curve" smooth="yes"/>
      <point x="267.333" y="142"/>
      <point x="231" y="186.593"/>
      <point x="231" y="282" type="curve" smooth="yes"/>
      <point x="231" y="294" type="line" smooth="yes"/>
      <point x="231" y="386.299"/>
      <point x="264.263" y="436.554"/>
      <point x="345" y="511" type="curve" smooth="yes"/>
      <point x="422" y="582" type="line" smooth="yes"/>
      <point x="519.222" y="671.646"/>
      <point x="569" y="768.044"/>
      <point x="569" y="904" type="curve" smooth="yes"/>
      <point x="569" y="946" type="line" smooth="yes"/>
      <point x="569" y="1127.28"/>
      <point x="485.322" y="1220"/>
    </contour>
    <contour>
      <point x="773" y="1395" type="curve" smooth="yes"/>
      <point x="620.991" y="1395"/>
      <point x="546" y="1313.02"/>
      <point x="546" y="1144" type="curve" smooth="yes"/>
      <point x="546" y="1097" type="line" smooth="yes"/>
      <point x="546" y="955.9"/>
      <point x="606.345" y="885"/>
      <point x="724" y="885" type="curve" smooth="yes"/>
      <point x="792.395" y="885"/>
      <point x="829.011" y="917.764"/>
      <point x="842" y="966" type="curve"/>
      <point x="863" y="966" type="line"/>
      <point x="859" y="1112" type="line"/>
      <point x="848.567" y="1046.95"/>
      <point x="820.113" y="1012"/>
      <point x="767" y="1012" type="curve" smooth="yes"/>
      <point x="725.907" y="1012"/>
      <point x="700" y="1036"/>
      <point x="700" y="1106" type="curve" smooth="yes"/>
      <point x="700" y="1147" type="line" smooth="yes"/>
      <point x="700" y="1224.19"/>
      <point x="724.05" y="1257"/>
      <point x="774" y="1257" type="curve" smooth="yes"/>
      <point x="824.875" y="1257"/>
      <point x="848" y="1224.19"/>
      <point x="848" y="1147" type="curve" smooth="yes"/>
      <point x="848" y="928" type="line" smooth="yes"/>
      <point x="848" y="778.514"/>
      <point x="798.974" y="711"/>
      <point x="697" y="711" type="curve"/>
      <point x="906.254" y="682.542" type="line"/>
      <point x="906" y="711" type="line"/>
      <point x="977.603" y="746.603"/>
      <point x="1006" y="825.451"/>
      <point x="1006" y="974" type="curve" smooth="yes"/>
      <point x="1006" y="1126" type="line" smooth="yes"/>
      <point x="1006" y="1308.39"/>
      <point x="928.333" y="1395"/>
    </contour>
  </outline>
  <guideline angle="0" x="0" y="1775"/>
  <guideline angle="90" x="809" y="0"/>
  <guideline angle="0" x="0" y="888"/>
</glyph>
<glyph name="ChaHalant.kn" format="2">
  <advance width="1586"/>
  <outline>
    <component base="Halant.kn" xOffset="1110"/>
    <contour>
      <point x="1000" y="284" type="curve" smooth="yes"/>
      <point x="1000" y="765" type="line" smooth="yes"/>
      <point x="1000" y="936.104"/>
      <point x="953.625" y="1019.39"/>
      <point x="860" y="1042" type="curve"/>
      <point x="860" y="1044.57"/>
      <point x="860" y="1061.85"/>
      <point x="860" y="1064" type="curve"/>
      <point x="667" y="1063" type="line"/>
      <point x="667" y="1045" type="line"/>
      <point x="780.404" y="1045"/>
      <point x="828" y="975.7"/>
      <point x="828" y="813" type="curve" smooth="yes"/>
      <point x="828" y="288" type="line" smooth="yes"/>
      <point x="828" y="187.625"/>
      <point x="796.32" y="142"/>
      <point x="732" y="142" type="curve" smooth="yes"/>
      <point x="665.347" y="142"/>
      <point x="633.921" y="186.675"/>
      <point x="630" y="286" type="curve" smooth="yes"/>
      <point x="624" y="438" type="line"/>
      <point x="467" y="438" type="line"/>
      <point x="461" y="287" type="line" smooth="yes"/>
      <point x="457.014" y="186.675"/>
      <point x="426" y="142"/>
      <point x="357" y="142" type="curve" smooth="yes"/>
      <point x="291" y="142"/>
      <point x="258" y="187.621"/>
      <point x="258" y="289" type="curve" smooth="yes"/>
      <point x="258" y="678" type="line"/>
      <point x="89" y="669" type="line"/>
      <point x="89" y="284" type="line" smooth="yes"/>
      <point x="89" y="75.6337"/>
      <point x="170.264" y="-21"/>
      <point x="338" y="-21" type="curve" smooth="yes"/>
      <point x="461" y="-21"/>
      <point x="528.512" y="36.1915"/>
      <point x="543" y="147" type="curve"/>
      <point x="549" y="147" type="line"/>
      <point x="563.486" y="35.5989"/>
      <point x="630.028" y="-21"/>
      <point x="753" y="-21" type="curve" smooth="yes"/>
      <point x="919.751" y="-21"/>
      <point x="1000" y="75.9536"/>
    </contour>
    <contour>
      <point x="827" y="1045" type="line"/>
      <point x="827" y="1193" type="line"/>
      <point x="647" y="1193" type="line"/>
      <point x="647" y="1045" type="line"/>
    </contour>
    <contour>
      <point x="342" y="1220" type="curve" smooth="yes"/>
      <point x="174.661" y="1220"/>
      <point x="89" y="1122.33"/>
      <point x="89" y="920" type="curve" smooth="yes"/>
      <point x="89" y="637" type="line"/>
      <point x="255" y="642" type="line"/>
      <point x="255" y="937" type="line" smooth="yes"/>
      <point x="255" y="1028.26"/>
      <point x="280.773" y="1070"/>
      <point x="339" y="1070" type="curve" smooth="yes"/>
      <point x="395.841" y="1070"/>
      <point x="421" y="1028.26"/>
      <point x="421" y="937" type="curve" smooth="yes"/>
      <point x="421" y="760" type="line" smooth="yes"/>
      <point x="421" y="676.991"/>
      <point x="392.296" y="649"/>
      <point x="346" y="649" type="curve" smooth="yes"/>
      <point x="283.164" y="649"/>
      <point x="249.782" y="690.613"/>
      <point x="238" y="769" type="curve"/>
      <point x="236" y="609" type="line"/>
      <point x="264" y="609" type="line"/>
      <point x="282.125" y="548.091"/>
      <point x="329.822" y="509"/>
      <point x="409" y="509" type="curve" smooth="yes"/>
      <point x="529.011" y="509"/>
      <point x="588" y="586.674"/>
      <point x="588" y="747" type="curve" smooth="yes"/>
      <point x="588" y="937" type="line" smooth="yes"/>
      <point x="588" y="1126.33"/>
      <point x="506.332" y="1220"/>
    </contour>
    <contour>
      <point x="546" y="-393" type="curve" smooth="yes"/>
      <point x="604" y="-393"/>
      <point x="632" y="-355.667"/>
      <point x="632" y="-281" type="curve" smooth="yes"/>
      <point x="632" y="-265" type="line" smooth="yes"/>
      <point x="632" y="-146"/>
      <point x="597" y="-44"/>
      <point x="546" y="32" type="curve"/>
      <point x="496" y="-44"/>
      <point x="461" y="-146"/>
      <point x="461" y="-265" type="curve" smooth="yes"/>
      <point x="461" y="-281" type="line" smooth="yes"/>
      <point x="461" y="-355.667"/>
      <point x="489" y="-393"/>
    </contour>
  </outline>
  <guideline angle="90" x="1187" y="0"/>
  <guideline angle="90" x="871" y="0"/>
  <guideline angle="90" x="445" y="0"/>
  <guideline angle="90" x="-119" y="0"/>
  <guideline angle="0" x="0" y="-274"/>
</glyph>
<glyph name="DdamatraU.kn" format="2">
  <advance width="1457"/>
  <outline>
    <component base="Dda.kn"/>
    <contour>
      <point x="1127" y="1205" type="curve" smooth="yes"/>
      <point x="1108" y="1205"/>
      <point x="1091" y="1204"/>
      <point x="1077" y="1203" type="curve"/>
      <point x="1077" y="1044" type="line"/>
      <point x="1084" y="1045"/>
      <point x="1089" y="1045"/>
      <point x="1093" y="1045" type="curve" smooth="yes"/>
      <point x="1162.68" y="1045"/>
      <point x="1196" y="999.412"/>
      <point x="1196" y="890" type="curve" smooth="yes"/>
      <point x="1196" y="307" type="line" smooth="yes"/>
      <point x="1196" y="192.639"/>
      <point x="1161.1" y="139"/>
      <point x="1080" y="139" type="curve" smooth="yes"/>
      <point x="997.355" y="139"/>
      <point x="958" y="193.269"/>
      <point x="958" y="310" type="curve"/>
      <point x="958" y="311.446" type="line"/>
      <point x="889" y="310" type="line"/>
      <point x="889" y="279" type="line" smooth="yes"/>
      <point x="889" y="79.6644"/>
      <point x="957.674" y="-21"/>
      <point x="1120" y="-21" type="curve" smooth="yes"/>
      <point x="1285.7" y="-21"/>
      <point x="1368" y="86.359"/>
      <point x="1368" y="295" type="curve" smooth="yes"/>
      <point x="1368" y="892" type="line" smooth="yes"/>
      <point x="1368" y="1106"/>
      <point x="1292" y="1205"/>
    </contour>
  </outline>
</glyph>
<glyph name="DdhamatraUu.kn" format="2">
  <advance width="2041"/>
  <outline>
    <component base="DdamatraUu.kn"/>
    <contour>
      <point x="522" y="-393" type="curve" smooth="yes"/>
      <point x="580" y="-393"/>
      <point x="608" y="-355.667"/>
      <point x="608" y="-281" type="curve" smooth="yes"/>
      <point x="608" y="-265" type="line" smooth="yes"/>
      <point x="608" y="-146"/>
      <point x="573" y="-44"/>
      <point x="522" y="32" type="curve"/>
      <point x="472" y="-44"/>
      <point x="437" y="-146"/>
      <point x="437" y="-265" type="curve" smooth="yes"/>
      <point x="437" y="-281" type="line" smooth="yes"/>
      <point x="437" y="-355.667"/>
      <point x="465" y="-393"/>
    </contour>
  </outline>
  <guideline angle="0" x="0" y="-349"/>
  <guideline angle="90" x="406" y="0"/>
  <guideline angle="90" x="112" y="0"/>
</glyph>
<glyph name="Ddhasmall1.kn" format="2">
  <outline>
    <component base="Ddasmall1.kn"/>
    <contour>
      <point x="-118" y="-709" type="curve"/>
      <point x="-154" y="-749"/>
      <point x="-180" y="-798"/>
      <point x="-180" y="-860" type="curve" smooth="yes"/>
      <point x="-180" y="-866" type="line" smooth="yes"/>
      <point x="-180" y="-917"/>
      <point x="-160" y="-941"/>
      <point x="-118" y="-941" type="curve" smooth="yes"/>
      <point x="-77" y="-941"/>
      <point x="-57" y="-917"/>
      <point x="-57" y="-866" type="curve" smooth="yes"/>
      <point x="-57" y="-860" type="line" smooth="yes"/>
      <point x="-57" y="-798"/>
      <point x="-83" y="-749"/>
    </contour>
  </outline>
</glyph>
<glyph name="DhamatraE.kn" format="2">
  <advance width="1031"/>
  <outline>
    <component base="DamatraE.kn"/>
    <contour>
      <point x="515" y="-393" type="curve" smooth="yes"/>
      <point x="573" y="-393"/>
      <point x="601" y="-355.667"/>
      <point x="601" y="-281" type="curve" smooth="yes"/>
      <point x="601" y="-265" type="line" smooth="yes"/>
      <point x="601" y="-146"/>
      <point x="566" y="-44"/>
      <point x="515" y="32" type="curve"/>
      <point x="465" y="-44"/>
      <point x="430" y="-146"/>
      <point x="430" y="-265" type="curve" smooth="yes"/>
      <point x="430" y="-281" type="line" smooth="yes"/>
      <point x="430" y="-355.667"/>
      <point x="458" y="-393"/>
    </contour>
  </outline>
  <guideline angle="0" x="0" y="-274"/>
  <guideline angle="90" x="112" y="0"/>
</glyph>
<glyph name="GamatraI.kn" format="2">
  <advance width="865"/>
  <outline>
    <contour>
      <point x="417" y="1383" type="curve" smooth="yes"/>
      <point x="556.958" y="1383"/>
      <point x="625" y="1294.13"/>
      <point x="625" y="1094" type="curve" smooth="yes"/>
      <point x="625" y="685" type="line"/>
      <point x="767" y="683" type="line"/>
      <point x="767" y="1112" type="line" smooth="yes"/>
      <point x="767" y="1403.12"/>
      <point x="657" y="1535"/>
      <point x="412" y="1535" type="curve" smooth="yes"/>
      <point x="203" y="1535"/>
      <point x="100" y="1444.68"/>
      <point x="100" y="1271" type="curve" smooth="yes"/>
      <point x="100" y="1148.89"/>
      <point x="158" y="1083.29"/>
      <point x="265" y="1051" type="curve"/>
      <point x="326" y="1162" type="line"/>
      <point x="293" y="1178"/>
      <point x="272" y="1211"/>
      <point x="272" y="1260" type="curve" smooth="yes"/>
      <point x="272" y="1340.69"/>
      <point x="319.685" y="1383"/>
    </contour>
    <contour>
      <point x="595" y="809" type="curve" smooth="yes"/>
      <point x="595" y="0" type="line"/>
      <point x="767" y="0" type="line"/>
      <point x="767" y="947" type="line"/>
      <point x="648" y="1087" type="line"/>
      <point x="619" y="1085" type="line"/>
      <point x="593.211" y="1148.14"/>
      <point x="538.707" y="1190"/>
      <point x="429" y="1190" type="curve" smooth="yes"/>
      <point x="368.6" y="1190"/>
      <point x="319.655" y="1176"/>
      <point x="278" y="1149" type="curve"/>
      <point x="274.847" y="1147.07"/>
      <point x="214.153" y="1109.93"/>
      <point x="211" y="1108" type="curve"/>
      <point x="135" y="1046.34"/>
      <point x="99" y="953.319"/>
      <point x="99" y="807" type="curve" smooth="yes"/>
      <point x="99" y="0" type="line"/>
      <point x="271" y="0" type="line"/>
      <point x="271" y="809" type="line" smooth="yes"/>
      <point x="271" y="961.303"/>
      <point x="323" y="1036"/>
      <point x="433" y="1036" type="curve" smooth="yes"/>
      <point x="543.683" y="1036"/>
      <point x="595" y="961.303"/>
    </contour>
  </outline>
  <guideline angle="0" x="0" y="1180"/>
  <guideline angle="0" x="0" y="1475"/>
  <guideline angle="0" x="0" y="1147"/>
</glyph>
<glyph name="GhamatraUu.kn" format="2">
  <advance width="2062"/>
  <outline>
    <component base="Gha.kn"/>
    <contour>
      <point x="1082.16" y="139" type="curve" smooth="yes"/>
      <point x="1012.48" y="139"/>
      <point x="979.156" y="183.683"/>
      <point x="979.156" y="280" type="curve"/>
      <point x="979.156" y="280"/>
      <point x="979.156" y="317"/>
      <point x="979.156" y="317" type="curve"/>
      <point x="909.156" y="317" type="line"/>
      <point x="909.156" y="254" type="line" smooth="yes"/>
      <point x="909.156" y="71.3358"/>
      <point x="980.176" y="-21"/>
      <point x="1118.16" y="-21" type="curve" smooth="yes"/>
      <point x="1268.68" y="-21"/>
      <point x="1341.16" y="77.3415"/>
      <point x="1341.16" y="267" type="curve" smooth="yes"/>
      <point x="1341.16" y="598" type="line"/>
      <point x="1172.16" y="598" type="line"/>
      <point x="1172.16" y="279" type="line" smooth="yes"/>
      <point x="1172.16" y="183.681"/>
      <point x="1145.16" y="139"/>
    </contour>
    <contour>
      <point x="1575" y="1220" type="curve" smooth="yes"/>
      <point x="1308" y="1220"/>
      <point x="1172" y="1072"/>
      <point x="1172" y="782" type="curve" smooth="yes"/>
      <point x="1172" y="579" type="line"/>
      <point x="1341" y="579" type="line"/>
      <point x="1341" y="779" type="line" smooth="yes"/>
      <point x="1341" y="967"/>
      <point x="1412" y="1063"/>
      <point x="1575" y="1063" type="curve" smooth="yes"/>
      <point x="1737" y="1063"/>
      <point x="1807" y="964"/>
      <point x="1807" y="778" type="curve" smooth="yes"/>
      <point x="1807" y="538" type="line"/>
      <point x="1975" y="534" type="line"/>
      <point x="1975" y="782" type="line" smooth="yes"/>
      <point x="1975" y="1072"/>
      <point x="1839" y="1220"/>
    </contour>
    <contour>
      <point x="1975" y="542" type="line"/>
      <point x="1809" y="545" type="line"/>
      <point x="1809" y="263" type="line" smooth="yes"/>
      <point x="1809" y="171"/>
      <point x="1782" y="129"/>
      <point x="1724" y="129" type="curve" smooth="yes"/>
      <point x="1665" y="129"/>
      <point x="1639" y="171"/>
      <point x="1639" y="263" type="curve" smooth="yes"/>
      <point x="1639" y="453" type="line" smooth="yes"/>
      <point x="1639" y="541"/>
      <point x="1670" y="570"/>
      <point x="1720" y="570" type="curve" smooth="yes"/>
      <point x="1781" y="570"/>
      <point x="1814" y="527"/>
      <point x="1826" y="444" type="curve"/>
      <point x="1828" y="601" type="line"/>
      <point x="1801" y="601" type="line"/>
      <point x="1784" y="671"/>
      <point x="1742" y="714"/>
      <point x="1656" y="714" type="curve" smooth="yes"/>
      <point x="1532" y="714"/>
      <point x="1473" y="634"/>
      <point x="1473" y="464" type="curve" smooth="yes"/>
      <point x="1473" y="264" type="line" smooth="yes"/>
      <point x="1473" y="74"/>
      <point x="1555" y="-21"/>
      <point x="1723" y="-21" type="curve" smooth="yes"/>
      <point x="1890" y="-21"/>
      <point x="1975" y="78"/>
      <point x="1975" y="281" type="curve" smooth="yes"/>
    </contour>
  </outline>
  <guideline angle="90" x="104" y="0"/>
</glyph>
<glyph name="JhaHalant.kn" format="2">
  <advance width="2172"/>
  <outline>
    <component base="Ra.kn"/>
    <component base="matraU.kn" xOffset="856"/>
    <component base="Halant.kn" xOffset="1696"/>
    <contour>
      <point x="1415" y="817" type="curve" smooth="yes"/>
      <point x="1415" y="303" type="line" smooth="yes"/>
      <point x="1415" y="190.681"/>
      <point x="1381" y="138"/>
      <point x="1302" y="138" type="curve" smooth="yes"/>
      <point x="1218" y="138"/>
      <point x="1178" y="190.683"/>
      <point x="1178" y="304" type="curve" smooth="yes"/>
      <point x="1178" y="413" type="line"/>
      <point x="1109" y="413" type="line"/>
      <point x="1109" y="280" type="line" smooth="yes"/>
      <point x="1109" y="80"/>
      <point x="1188.02" y="-21"/>
      <point x="1342" y="-21" type="curve" smooth="yes"/>
      <point x="1506.36" y="-21"/>
      <point x="1588" y="85"/>
      <point x="1588" y="291" type="curve" smooth="yes"/>
      <point x="1588" y="768" type="line" smooth="yes"/>
      <point x="1588" y="937.235"/>
      <point x="1541.97" y="1019.61"/>
      <point x="1449" y="1042" type="curve"/>
      <point x="1449" y="1066" type="line"/>
      <point x="1256" y="1066" type="line"/>
      <point x="1256" y="1048" type="line"/>
      <point x="1368" y="1048"/>
      <point x="1415" y="979"/>
    </contour>
    <contour>
      <point x="1400" y="1048" type="line"/>
      <point x="1397" y="1193" type="line"/>
      <point x="1250" y="1193" type="line"/>
      <point x="1250" y="1048" type="line"/>
    </contour>
    <contour>
      <point x="1154" y="-391" type="curve" smooth="yes"/>
      <point x="1212" y="-391"/>
      <point x="1240" y="-358"/>
      <point x="1240" y="-292" type="curve" smooth="yes"/>
      <point x="1240" y="-250" type="line" smooth="yes"/>
      <point x="1240" y="-131"/>
      <point x="1205" y="-39"/>
      <point x="1154" y="37" type="curve"/>
      <point x="1104" y="-39"/>
      <point x="1069" y="-131"/>
      <point x="1069" y="-250" type="curve" smooth="yes"/>
      <point x="1069" y="-292" type="line" smooth="yes"/>
      <point x="1069" y="-358"/>
      <point x="1097" y="-391"/>
    </contour>
    <contour>
      <point x="699" y="300" type="line"/>
      <point x="768" y="300" type="line"/>
      <point x="768" y="400" type="line"/>
      <point x="699" y="400" type="line"/>
    </contour>
  </outline>
  <guideline angle="90" x="1275" y="0"/>
  <guideline angle="0" x="0" y="-274"/>
  <guideline angle="90" x="-79" y="0"/>
  <guideline angle="90" x="-151" y="0"/>
  <guideline angle="90" x="303" y="0"/>
</glyph>
<glyph name="JhamatraO.kn" format="2">
  <advance width="2261"/>
  <outline>
    <component base="matraUu.kn" xOffset="1269"/>
    <component base="matraE.kn" xOffset="274"/>
    <component base="matraU.kn" xOffset="858"/>
    <contour>
      <point x="237" y="1073" type="line"/>
      <point x="237" y="1041" type="line"/>
      <point x="136.688" y="1012.97"/>
      <point x="87" y="924.158"/>
      <point x="87" y="756" type="curve" smooth="yes"/>
      <point x="87" y="365" type="line" smooth="yes"/>
      <point x="87" y="104"/>
      <point x="200.331" y="-24"/>
      <point x="429" y="-24" type="curve" smooth="yes"/>
      <point x="658.674" y="-24"/>
      <point x="770" y="104"/>
      <point x="770" y="365" type="curve" smooth="yes"/>
      <point x="770" y="756" type="line" smooth="yes"/>
      <point x="770" y="924.158"/>
      <point x="721.312" y="1011.97"/>
      <point x="621" y="1040" type="curve"/>
      <point x="621" y="1073" type="line"/>
    </contour>
    <contour>
      <point x="429" y="134" type="curve" smooth="yes"/>
      <point x="314.655" y="134"/>
      <point x="259" y="212"/>
      <point x="259" y="369" type="curve" smooth="yes"/>
      <point x="259" y="810" type="line" smooth="yes"/>
      <point x="259" y="967"/>
      <point x="314.655" y="1046"/>
      <point x="429" y="1046" type="curve" smooth="yes"/>
      <point x="543.679" y="1046"/>
      <point x="598" y="967"/>
      <point x="598" y="810" type="curve" smooth="yes"/>
      <point x="598" y="369" type="line" smooth="yes"/>
      <point x="598" y="212"/>
      <point x="543.679" y="134"/>
    </contour>
    <contour>
      <point x="580" y="1046" type="line"/>
      <point x="580" y="1193" type="line"/>
      <point x="87" y="1193" type="line"/>
      <point x="87" y="1046" type="line"/>
    </contour>
    <contour>
      <point x="1137" y="-393" type="curve" smooth="yes"/>
      <point x="1195" y="-393"/>
      <point x="1223" y="-355.667"/>
      <point x="1223" y="-281" type="curve" smooth="yes"/>
      <point x="1223" y="-265" type="line" smooth="yes"/>
      <point x="1223" y="-146"/>
      <point x="1188" y="-44"/>
      <point x="1137" y="32" type="curve"/>
      <point x="1087" y="-44"/>
      <point x="1052" y="-146"/>
      <point x="1052" y="-265" type="curve" smooth="yes"/>
      <point x="1052" y="-281" type="line" smooth="yes"/>
      <point x="1052" y="-355.667"/>
      <point x="1080" y="-393"/>
    </contour>
    <contour>
      <point x="701" y="300" type="line"/>
      <point x="770" y="300" type="line"/>
      <point x="770" y="400" type="line"/>
      <point x="701" y="400" type="line"/>
    </contour>
  </outline>
  <guideline angle="0" x="0" y="-274"/>
  <guideline angle="90" x="677" y="0"/>
  <guideline angle="90" x="605" y="0"/>
  <guideline angle="90" x="1059" y="0"/>
  <guideline angle="90" x="252" y="0"/>
  <guideline angle="0" x="0" y="-349"/>
  <guideline angle="90" x="900" y="0"/>
</glyph>
<glyph name="KaHalant.kn" format="2">
  <advance width="1332"/>
  <outline>
    <component base="Halant.kn" xOffset="856"/>
    <contour>
      <point x="62" y="800" type="line"/>
      <point x="62" y="652" type="line"/>
      <point x="286" y="652" type="line"/>
      <point x="286" y="672" type="line"/>
      <point x="546" y="672" type="line"/>
      <point x="546" y="652" type="line"/>
      <point x="765" y="652" type="line"/>
      <point x="765" y="800" type="line"/>
    </contour>
    <contour>
      <point x="329" y="1114" type="line"/>
      <point x="329" y="770" type="line"/>
      <point x="497" y="770" type="line"/>
      <point x="497" y="1114" type="line"/>
    </contour>
    <contour>
      <point x="62" y="1193" type="line"/>
      <point x="62" y="1045" type="line"/>
      <point x="543" y="1045" type="line"/>
      <point x="543" y="1193" type="line"/>
    </contour>
    <contour>
      <point x="413" y="132" type="curve" smooth="yes"/>
      <point x="323" y="132"/>
      <point x="278" y="190.983"/>
      <point x="278" y="312" type="curve" smooth="yes"/>
      <point x="278" y="472" type="line" smooth="yes"/>
      <point x="278" y="593.006"/>
      <point x="323" y="653"/>
      <point x="413" y="653" type="curve" smooth="yes"/>
      <point x="503.667" y="653"/>
      <point x="549" y="593.006"/>
      <point x="549" y="472" type="curve" smooth="yes"/>
      <point x="549" y="312" type="line" smooth="yes"/>
      <point x="549" y="190.983"/>
      <point x="503.667" y="132"/>
    </contour>
    <contour>
      <point x="224" y="684" type="line"/>
      <point x="224" y="646" type="line"/>
      <point x="158.68" y="628"/>
      <point x="108" y="561"/>
      <point x="108" y="419" type="curve" smooth="yes"/>
      <point x="108" y="297" type="line" smooth="yes"/>
      <point x="108" y="85.8182"/>
      <point x="213" y="-25"/>
      <point x="413" y="-25" type="curve" smooth="yes"/>
      <point x="614" y="-25"/>
      <point x="719" y="85.8182"/>
      <point x="719" y="297" type="curve" smooth="yes"/>
      <point x="719" y="419" type="line" smooth="yes"/>
      <point x="719" y="561"/>
      <point x="668.286" y="628"/>
      <point x="602" y="646" type="curve"/>
      <point x="602" y="684" type="line"/>
    </contour>
  </outline>
</glyph>
<glyph name="KaSsamatraI.kn" format="2">
  <advance width="828"/>
  <outline>
    <component base="KamatraI.kn"/>
    <contour>
      <point x="817.333" y="-575.833" type="line"/>
      <point x="789.312" y="-367.627"/>
      <point x="767.345" y="-228.442"/>
      <point x="735" y="-50.1666" type="curve"/>
      <point x="607.667" y="-50.1666" type="line"/>
      <point x="619.333" y="-134.413"/>
      <point x="625.5" y="-194.919"/>
      <point x="625.5" y="-233.333" type="curve" smooth="yes"/>
      <point x="625.5" y="-302.749"/>
      <point x="601.327" y="-333.333"/>
      <point x="552.333" y="-333.333" type="curve" smooth="yes"/>
      <point x="505.118" y="-333.333"/>
      <point x="482.129" y="-302.977"/>
      <point x="478.833" y="-232.5" type="curve" smooth="yes"/>
      <point x="474.5" y="-139.833" type="line"/>
      <point x="384.833" y="-139.833" type="line"/>
      <point x="391.5" y="-184.531"/>
      <point x="408.167" y="-295.317"/>
      <point x="413.667" y="-331.667" type="curve"/>
      <point x="420.856" y="-409.328"/>
      <point x="467.823" y="-453.167"/>
      <point x="552.333" y="-453.167" type="curve" smooth="yes"/>
      <point x="619.19" y="-453.167"/>
      <point x="668.275" y="-424.547"/>
      <point x="683" y="-356.333" type="curve"/>
      <point x="688.333" y="-356.333" type="line"/>
      <point x="687.965" y="-392.048"/>
      <point x="677.307" y="-534.272"/>
      <point x="675.833" y="-575.833" type="curve"/>
    </contour>
    <contour>
      <point x="230" y="-67.8333" type="curve"/>
      <point x="105.5" y="-67.8333" type="line"/>
      <point x="79.5" y="-111.449"/>
      <point x="66.3333" y="-166.586"/>
      <point x="66.3333" y="-226.167" type="curve" smooth="yes"/>
      <point x="66.3333" y="-247.167" type="line" smooth="yes"/>
      <point x="66.3333" y="-382.896"/>
      <point x="128.328" y="-453.167"/>
      <point x="252" y="-453.167" type="curve" smooth="yes"/>
      <point x="347.952" y="-453.167"/>
      <point x="398.984" y="-409.328"/>
      <point x="408.5" y="-331.667" type="curve"/>
      <point x="446.167" y="-331.667" type="line"/>
      <point x="411.167" y="-139.833" type="line"/>
      <point x="348.667" y="-139.833" type="line"/>
      <point x="344.333" y="-232.5" type="line" smooth="yes"/>
      <point x="341.039" y="-302.944"/>
      <point x="320.149" y="-333.333"/>
      <point x="269.833" y="-333.333" type="curve" smooth="yes"/>
      <point x="222.783" y="-333.333"/>
      <point x="196.5" y="-302.738"/>
      <point x="196.5" y="-234.5" type="curve" smooth="yes"/>
      <point x="196.5" y="-213.333" type="line" smooth="yes"/>
      <point x="196.5" y="-157.928"/>
      <point x="210.333" y="-105.647"/>
    </contour>
  </outline>
</glyph>
<glyph name="KaSsamatraUu.kn" format="2">
  <advance width="1802"/>
  <outline>
    <component base="KamatraUu.kn"/>
    <contour>
      <point x="820.333" y="-575.833" type="line"/>
      <point x="792.312" y="-367.627"/>
      <point x="770.345" y="-228.442"/>
      <point x="738" y="-50.1666" type="curve"/>
      <point x="610.667" y="-50.1666" type="line"/>
      <point x="622.333" y="-134.413"/>
      <point x="628.5" y="-194.919"/>
      <point x="628.5" y="-233.333" type="curve" smooth="yes"/>
      <point x="628.5" y="-302.749"/>
      <point x="604.327" y="-333.333"/>
      <point x="555.333" y="-333.333" type="curve" smooth="yes"/>
      <point x="508.118" y="-333.333"/>
      <point x="485.129" y="-302.977"/>
      <point x="481.833" y="-232.5" type="curve" smooth="yes"/>
      <point x="477.5" y="-139.833" type="line"/>
      <point x="387.833" y="-139.833" type="line"/>
      <point x="394.5" y="-184.531"/>
      <point x="411.167" y="-295.317"/>
      <point x="416.667" y="-331.667" type="curve"/>
      <point x="423.856" y="-409.328"/>
      <point x="470.823" y="-453.167"/>
      <point x="555.333" y="-453.167" type="curve" smooth="yes"/>
      <point x="622.19" y="-453.167"/>
      <point x="671.275" y="-424.547"/>
      <point x="686" y="-356.333" type="curve"/>
      <point x="691.333" y="-356.333" type="line"/>
      <point x="690.965" y="-392.048"/>
      <point x="680.307" y="-534.272"/>
      <point x="678.833" y="-575.833" type="curve"/>
    </contour>
    <contour>
      <point x="233" y="-67.8333" type="curve"/>
      <point x="108.5" y="-67.8333" type="line"/>
      <point x="82.5" y="-111.449"/>
      <point x="69.3333" y="-166.586"/>
      <point x="69.3333" y="-226.167" type="curve" smooth="yes"/>
      <point x="69.3333" y="-247.167" type="line" smooth="yes"/>
      <point x="69.3333" y="-382.896"/>
      <point x="131.328" y="-453.167"/>
      <point x="255" y="-453.167" type="curve" smooth="yes"/>
      <point x="350.952" y="-453.167"/>
      <point x="401.984" y="-409.328"/>
      <point x="411.5" y="-331.667" type="curve"/>
      <point x="449.167" y="-331.667" type="line"/>
      <point x="414.167" y="-139.833" type="line"/>
      <point x="351.667" y="-139.833" type="line"/>
      <point x="347.333" y="-232.5" type="line" smooth="yes"/>
      <point x="344.039" y="-302.944"/>
      <point x="323.149" y="-333.333"/>
      <point x="272.833" y="-333.333" type="curve" smooth="yes"/>
      <point x="225.783" y="-333.333"/>
      <point x="199.5" y="-302.738"/>
      <point x="199.5" y="-234.5" type="curve" smooth="yes"/>
      <point x="199.5" y="-213.333" type="line" smooth="yes"/>
      <point x="199.5" y="-157.928"/>
      <point x="213.333" y="-105.647"/>
    </contour>
  </outline>
  <guideline angle="90" x="342" y="0"/>
</glyph>
<glyph name="KhamatraI.kn" format="2">
  <advance width="1156"/>
  <outline>
    <contour>
      <point x="828" y="1436" type="curve" smooth="yes"/>
      <point x="675.991" y="1436"/>
      <point x="601" y="1354.02"/>
      <point x="601" y="1185" type="curve" smooth="yes"/>
      <point x="601" y="1103" type="line" smooth="yes"/>
      <point x="601" y="961.9"/>
      <point x="659.311" y="891"/>
      <point x="773" y="891" type="curve" smooth="yes"/>
      <point x="841.975" y="891"/>
      <point x="878.901" y="922.146"/>
      <point x="892" y="968" type="curve"/>
      <point x="918" y="968" type="line"/>
      <point x="914" y="1118" type="line"/>
      <point x="903.567" y="1052.95"/>
      <point x="875.113" y="1018"/>
      <point x="822" y="1018" type="curve" smooth="yes"/>
      <point x="780.907" y="1018"/>
      <point x="755" y="1042"/>
      <point x="755" y="1112" type="curve" smooth="yes"/>
      <point x="755" y="1188" type="line" smooth="yes"/>
      <point x="755" y="1265.19"/>
      <point x="779.05" y="1298"/>
      <point x="829" y="1298" type="curve" smooth="yes"/>
      <point x="879.875" y="1298"/>
      <point x="903" y="1265.19"/>
      <point x="903" y="1188" type="curve" smooth="yes"/>
      <point x="903" y="1126"/>
      <point x="903" y="1096"/>
      <point x="903" y="1033" type="curve" smooth="yes"/>
      <point x="903" y="1028.69"/>
      <point x="905" y="1011.54"/>
      <point x="905" y="1001" type="curve"/>
      <point x="905" y="1000.25"/>
      <point x="905" y="984.748"/>
      <point x="905" y="984" type="curve"/>
      <point x="898" y="968" type="line"/>
      <point x="890.7" y="883.643"/>
      <point x="889" y="835.304"/>
      <point x="889" y="750" type="curve" smooth="yes"/>
      <point x="889" y="315" type="line" smooth="yes"/>
      <point x="889" y="193"/>
      <point x="851.304" y="137"/>
      <point x="765" y="137" type="curve" smooth="yes"/>
      <point x="676.037" y="137"/>
      <point x="634" y="196"/>
      <point x="634" y="326" type="curve" smooth="yes"/>
      <point x="634" y="409" type="line"/>
      <point x="555" y="409" type="line"/>
      <point x="555" y="270" type="line" smooth="yes"/>
      <point x="555" y="76"/>
      <point x="630.095" y="-21"/>
      <point x="806" y="-21" type="curve" smooth="yes"/>
      <point x="977.377" y="-21"/>
      <point x="1061" y="88"/>
      <point x="1061" y="301" type="curve" smooth="yes"/>
      <point x="1061" y="751" type="line" smooth="yes"/>
      <point x="1061" y="917"/>
      <point x="1061" y="1002"/>
      <point x="1061" y="1167" type="curve" smooth="yes"/>
      <point x="1061" y="1349.39"/>
      <point x="983.333" y="1436"/>
    </contour>
    <contour>
      <point x="340" y="-21" type="curve" smooth="yes"/>
      <point x="508.038" y="-21"/>
      <point x="597" y="70.5626"/>
      <point x="597" y="281" type="curve"/>
      <point x="547" y="270" type="line"/>
      <point x="634" y="271" type="line"/>
      <point x="634" y="295"/>
      <point x="634" y="358"/>
      <point x="634" y="385" type="curve" smooth="yes"/>
      <point x="634" y="913" type="line" smooth="yes"/>
      <point x="634" y="1116.32"/>
      <point x="539.661" y="1220"/>
      <point x="356" y="1220" type="curve" smooth="yes"/>
      <point x="178" y="1220"/>
      <point x="85" y="1119.59"/>
      <point x="85" y="928" type="curve" smooth="yes"/>
      <point x="85" y="895" type="line" smooth="yes"/>
      <point x="85" y="804.832"/>
      <point x="98" y="740.199"/>
      <point x="121" y="694" type="curve"/>
      <point x="279" y="694" type="line"/>
      <point x="262" y="738.14"/>
      <point x="249" y="801.779"/>
      <point x="249" y="886" type="curve" smooth="yes"/>
      <point x="249" y="922" type="line" smooth="yes"/>
      <point x="249" y="1018.34"/>
      <point x="283.679" y="1068"/>
      <point x="357" y="1068" type="curve" smooth="yes"/>
      <point x="432.303" y="1068"/>
      <point x="465" y="1019.33"/>
      <point x="465" y="922" type="curve" smooth="yes"/>
      <point x="465" y="405" type="line"/>
      <point x="466.333" y="385"/>
      <point x="466.333" y="396"/>
      <point x="467" y="376" type="curve"/>
      <point x="467" y="368"/>
      <point x="467" y="302"/>
      <point x="467" y="296" type="curve" smooth="yes"/>
      <point x="467" y="182.069"/>
      <point x="429.317" y="128"/>
      <point x="348" y="128" type="curve" smooth="yes"/>
      <point x="270.017" y="128"/>
      <point x="232" y="176.675"/>
      <point x="232" y="275" type="curve" smooth="yes"/>
      <point x="232" y="322" type="line" smooth="yes"/>
      <point x="232" y="416.899"/>
      <point x="268.991" y="462"/>
      <point x="342" y="462" type="curve" smooth="yes"/>
      <point x="411" y="462"/>
      <point x="454" y="417.346"/>
      <point x="474" y="333" type="curve"/>
      <point x="481" y="448" type="line"/>
      <point x="470.969" y="542.023"/>
      <point x="414.489" y="605"/>
      <point x="305" y="605" type="curve" smooth="yes"/>
      <point x="148.43" y="605"/>
      <point x="68" y="513"/>
      <point x="68" y="332" type="curve" smooth="yes"/>
      <point x="68" y="269" type="line" smooth="yes"/>
      <point x="68" y="78.6875"/>
      <point x="160" y="-21"/>
    </contour>
  </outline>
  <guideline angle="90" x="286" y="0"/>
  <guideline angle="90" x="274" y="0"/>
  <guideline angle="0" x="0" y="219"/>
  <guideline angle="0" x="0" y="484"/>
</glyph>
<glyph name="LamatraU.kn" format="2">
  <advance width="1429"/>
  <outline>
    <component base="La.kn"/>
    <contour>
      <point x="1099" y="1205" type="curve" smooth="yes"/>
      <point x="1080" y="1205"/>
      <point x="1063" y="1204"/>
      <point x="1049" y="1203" type="curve"/>
      <point x="1049" y="1044" type="line"/>
      <point x="1056" y="1045"/>
      <point x="1061" y="1045"/>
      <point x="1065" y="1045" type="curve" smooth="yes"/>
      <point x="1134.68" y="1045"/>
      <point x="1168" y="999.412"/>
      <point x="1168" y="890" type="curve" smooth="yes"/>
      <point x="1168" y="303" type="line" smooth="yes"/>
      <point x="1168" y="191.361"/>
      <point x="1133.7" y="139"/>
      <point x="1054" y="139" type="curve" smooth="yes"/>
      <point x="970" y="139"/>
      <point x="930" y="191.365"/>
      <point x="930" y="304" type="curve" smooth="yes"/>
      <point x="930" y="456" type="line"/>
      <point x="841" y="456" type="line"/>
      <point x="841" y="280" type="line" smooth="yes"/>
      <point x="841" y="80"/>
      <point x="923.409" y="-21"/>
      <point x="1084" y="-21" type="curve" smooth="yes"/>
      <point x="1255.04" y="-21"/>
      <point x="1340" y="85"/>
      <point x="1340" y="291" type="curve" smooth="yes"/>
      <point x="1340" y="892" type="line" smooth="yes"/>
      <point x="1340" y="1106"/>
      <point x="1264" y="1205"/>
    </contour>
  </outline>
  <guideline angle="90" x="782" y="0"/>
  <guideline angle="90" x="710" y="0"/>
  <guideline angle="90" x="1164" y="0"/>
</glyph>
<glyph name="Lasmall1.kn.1" format="2">
  <outline>
    <contour>
      <point x="-159.833" y="-527.167" type="line"/>
      <point x="-155.667" y="-312.833" type="line" smooth="yes"/>
      <point x="-154.624" y="-259.189"/>
      <point x="-137.5" y="-234.833"/>
      <point x="-101.167" y="-234.833" type="curve" smooth="yes"/>
      <point x="-64.1687" y="-234.833"/>
      <point x="-45.8334" y="-260.011"/>
      <point x="-45.8334" y="-313" type="curve" smooth="yes"/>
      <point x="-45.8334" y="-388.667" type="line" smooth="yes"/>
      <point x="-45.8334" y="-471"/>
      <point x="-61" y="-553.167"/>
      <point x="-89.5" y="-608.333" type="curve"/>
      <point x="33" y="-608.333" type="line"/>
      <point x="61" y="-555"/>
      <point x="77" y="-480.833"/>
      <point x="77" y="-385.167" type="curve" smooth="yes"/>
      <point x="77" y="-309.5" type="line" smooth="yes"/>
      <point x="77" y="-186.833"/>
      <point x="21.9645" y="-123.333"/>
      <point x="-84.6667" y="-123.333" type="curve" smooth="yes"/>
      <point x="-161.297" y="-123.333"/>
      <point x="-205.586" y="-157.184"/>
      <point x="-214.667" y="-219.5" type="curve"/>
      <point x="-218.833" y="-219.5" type="line"/>
      <point x="-227.821" y="-157.184"/>
      <point x="-275.006" y="-123.333"/>
      <point x="-348.833" y="-123.333" type="curve" smooth="yes"/>
      <point x="-455.465" y="-123.333"/>
      <point x="-510.5" y="-186.833"/>
      <point x="-510.5" y="-309.5" type="curve" smooth="yes"/>
      <point x="-510.5" y="-385.167" type="line" smooth="yes"/>
      <point x="-510.5" y="-480.833"/>
      <point x="-494.5" y="-555"/>
      <point x="-466.5" y="-608.333" type="curve"/>
      <point x="-344" y="-608.333" type="line"/>
      <point x="-372.5" y="-553.167"/>
      <point x="-387.667" y="-471"/>
      <point x="-387.667" y="-388.667" type="curve" smooth="yes"/>
      <point x="-387.667" y="-313" type="line" smooth="yes"/>
      <point x="-387.667" y="-260.011"/>
      <point x="-369.331" y="-234.833"/>
      <point x="-332.333" y="-234.833" type="curve" smooth="yes"/>
      <point x="-296" y="-234.833"/>
      <point x="-278.652" y="-260.173"/>
      <point x="-277.833" y="-312.833" type="curve" smooth="yes"/>
      <point x="-274.5" y="-527.167" type="line"/>
    </contour>
  </outline>
  <guideline angle="0" x="0" y="-439"/>
  <guideline angle="90" x="255" y="0"/>
</glyph>
<glyph name="NamatraI.kn" format="2">
  <advance width="1011"/>
  <outline>
    <contour>
      <point x="315" y="736" type="curve" smooth="yes"/>
      <point x="155.652" y="736"/>
      <point x="77" y="641"/>
      <point x="77" y="449" type="curve" smooth="yes"/>
      <point x="77" y="343" type="line" smooth="yes"/>
      <point x="77" y="188"/>
      <point x="97" y="68"/>
      <point x="135" y="-9" type="curve"/>
      <point x="305" y="-9" type="line"/>
      <point x="268" y="79"/>
      <point x="245" y="206"/>
      <point x="245" y="344" type="curve" smooth="yes"/>
      <point x="245" y="458" type="line" smooth="yes"/>
      <point x="245" y="540.5"/>
      <point x="266.467" y="578"/>
      <point x="315" y="578" type="curve" smooth="yes"/>
      <point x="363.286" y="578"/>
      <point x="385.086" y="540.515"/>
      <point x="393" y="461" type="curve" smooth="yes"/>
      <point x="414" y="250" type="line" smooth="yes"/>
      <point x="432.127" y="67.8678"/>
      <point x="511.253" y="-21"/>
      <point x="673" y="-21" type="curve" smooth="yes"/>
      <point x="839" y="-21"/>
      <point x="922" y="80"/>
      <point x="922" y="275" type="curve" smooth="yes"/>
      <point x="922" y="528" type="line"/>
      <point x="750" y="529" type="line"/>
      <point x="750" y="272" type="line" smooth="yes"/>
      <point x="750" y="181.353"/>
      <point x="724.317" y="138"/>
      <point x="669" y="138" type="curve" smooth="yes"/>
      <point x="612.484" y="138"/>
      <point x="588.255" y="177.378"/>
      <point x="578" y="272" type="curve" smooth="yes"/>
      <point x="556" y="475" type="line" smooth="yes"/>
      <point x="536.812" y="652.049"/>
      <point x="465.393" y="736"/>
    </contour>
    <contour>
      <point x="922" y="378" type="line"/>
      <point x="922" y="843" type="line" smooth="yes"/>
      <point x="922" y="1220"/>
      <point x="789" y="1380"/>
      <point x="496" y="1380" type="curve" smooth="yes"/>
      <point x="266.682" y="1380"/>
      <point x="148" y="1276.66"/>
      <point x="148" y="1072" type="curve" smooth="yes"/>
      <point x="148" y="1040" type="line" smooth="yes"/>
      <point x="148" y="888.035"/>
      <point x="223.673" y="808"/>
      <point x="373" y="808" type="curve" smooth="yes"/>
      <point x="520.924" y="808"/>
      <point x="597" y="882.505"/>
      <point x="597" y="1023" type="curve" smooth="yes"/>
      <point x="597" y="1055" type="line" smooth="yes"/>
      <point x="597" y="1156.21"/>
      <point x="569.306" y="1209.14"/>
      <point x="494" y="1237" type="curve"/>
      <point x="494" y="1276" type="line"/>
      <point x="365" y="1225" type="line"/>
      <point x="423.395" y="1202.06"/>
      <point x="446" y="1157.15"/>
      <point x="446" y="1074" type="curve" smooth="yes"/>
      <point x="446" y="1043" type="line" smooth="yes"/>
      <point x="446" y="977.41"/>
      <point x="423.579" y="946"/>
      <point x="375" y="946" type="curve" smooth="yes"/>
      <point x="326.377" y="946"/>
      <point x="303" y="978.359"/>
      <point x="303" y="1044" type="curve" smooth="yes"/>
      <point x="303" y="1074" type="line" smooth="yes"/>
      <point x="303" y="1193.07"/>
      <point x="361.537" y="1243"/>
      <point x="503" y="1243" type="curve" smooth="yes"/>
      <point x="675.699" y="1243"/>
      <point x="750" y="1124.09"/>
      <point x="750" y="845" type="curve" smooth="yes"/>
      <point x="750" y="396" type="line"/>
    </contour>
  </outline>
</glyph>
<glyph name="Nasmall1.kn" format="2">
  <advance width="129"/>
  <outline>
    <contour>
      <point x="-147.833" y="-187" type="curve" smooth="yes"/>
      <point x="-293" y="-187"/>
      <point x="-369.667" y="-256.167"/>
      <point x="-369.667" y="-384" type="curve"/>
      <point x="-369.667" y="-385.833" type="line"/>
      <point x="-369.667" y="-514.333"/>
      <point x="-292.833" y="-581.667"/>
      <point x="-145.333" y="-581.667" type="curve" smooth="yes"/>
      <point x="-19.3659" y="-581.667"/>
      <point x="52.5741" y="-529.333"/>
      <point x="95.5" y="-457.833" type="curve"/>
      <point x="121.833" y="-435.167" type="line"/>
      <point x="161.322" y="-380"/>
      <point x="179.333" y="-307"/>
      <point x="179.333" y="-201.667" type="curve" smooth="yes"/>
      <point x="179.333" y="-57.1667"/>
      <point x="156.618" y="64.5"/>
      <point x="115.833" y="169.5" type="curve"/>
      <point x="-9" y="169.5" type="line"/>
      <point x="28.8333" y="70.5"/>
      <point x="53.1667" y="-56.6667"/>
      <point x="53.1667" y="-195.833" type="curve" smooth="yes"/>
      <point x="53.1667" y="-253.167"/>
      <point x="49.6071" y="-298.333"/>
      <point x="40.1667" y="-340.833" type="curve"/>
      <point x="33.3333" y="-355.833" type="line" smooth="yes"/>
      <point x="1.6667" y="-423.759"/>
      <point x="-48" y="-470.5"/>
      <point x="-136.333" y="-470.5" type="curve" smooth="yes"/>
      <point x="-206.513" y="-470.5"/>
      <point x="-243.667" y="-441.689"/>
      <point x="-243.667" y="-386.833" type="curve" smooth="yes"/>
      <point x="-243.667" y="-384.167" type="line" smooth="yes"/>
      <point x="-243.667" y="-327.971"/>
      <point x="-206.348" y="-298"/>
      <point x="-136.333" y="-298" type="curve" smooth="yes"/>
      <point x="-60.6667" y="-298"/>
      <point x="-7.50001" y="-330.966"/>
      <point x="32" y="-408.167" type="curve"/>
      <point x="82.8333" y="-334.667" type="line"/>
      <point x="50" y="-239.333"/>
      <point x="-31.5" y="-187"/>
    </contour>
    <contour>
      <point x="210.167" y="-743.333" type="line"/>
      <point x="205.953" y="-609.5"/>
      <point x="169.043" y="-448.167"/>
      <point x="120.167" y="-362" type="curve"/>
      <point x="31.8333" y="-433.333" type="line"/>
      <point x="61.4039" y="-504.667"/>
      <point x="76.2691" y="-627.5"/>
      <point x="78.6667" y="-743.333" type="curve"/>
    </contour>
  </outline>
  <guideline angle="90" x="32" y="0"/>
  <guideline angle="90" x="83" y="0"/>
</glyph>
<glyph name="NnamatraE.kn" format="2">
  <advance width="1086"/>
  <outline>
    <contour>
      <point x="806" y="1047" type="line"/>
      <point x="806" y="1193" type="line"/>
      <point x="76" y="1193" type="line"/>
      <point x="76" y="1047" type="line"/>
    </contour>
    <contour>
      <point x="997" y="418" type="line"/>
      <point x="997" y="714" type="line" smooth="yes"/>
      <point x="997" y="913.651"/>
      <point x="916.394" y="1005"/>
      <point x="746" y="1005" type="curve" smooth="yes"/>
      <point x="623.962" y="1005"/>
      <point x="553.668" y="951.516"/>
      <point x="540" y="848" type="curve"/>
      <point x="534" y="848" type="line"/>
      <point x="520.394" y="951.516"/>
      <point x="448.479" y="1005"/>
      <point x="327" y="1005" type="curve" smooth="yes"/>
      <point x="158.646" y="1005"/>
      <point x="76" y="912.727"/>
      <point x="76" y="715" type="curve" smooth="yes"/>
      <point x="76" y="702" type="line" smooth="yes"/>
      <point x="76" y="562.083"/>
      <point x="126.843" y="484.458"/>
      <point x="241" y="472" type="curve"/>
      <point x="241" y="466" type="line"/>
      <point x="125.884" y="453.593"/>
      <point x="76" y="378.199"/>
      <point x="76" y="236" type="curve" smooth="yes"/>
      <point x="76" y="215" type="line" smooth="yes"/>
      <point x="76" y="51.6844"/>
      <point x="158" y="-21"/>
      <point x="335" y="-21" type="curve" smooth="yes"/>
      <point x="361" y="-21"/>
      <point x="391" y="-18"/>
      <point x="425" y="-9" type="curve"/>
      <point x="437" y="134" type="line"/>
      <point x="417" y="127"/>
      <point x="389" y="124"/>
      <point x="364" y="124" type="curve" smooth="yes"/>
      <point x="280.308" y="124"/>
      <point x="243" y="157.803"/>
      <point x="243" y="244" type="curve" smooth="yes"/>
      <point x="243" y="256" type="line" smooth="yes"/>
      <point x="243" y="352.116"/>
      <point x="278.352" y="388.588"/>
      <point x="371" y="393" type="curve" smooth="yes"/>
      <point x="413" y="395" type="line"/>
      <point x="413" y="544" type="line"/>
      <point x="368" y="546" type="line" smooth="yes"/>
      <point x="275.32" y="550.119"/>
      <point x="243" y="590.277"/>
      <point x="243" y="696" type="curve" smooth="yes"/>
      <point x="243" y="712" type="line" smooth="yes"/>
      <point x="243" y="805.101"/>
      <point x="278" y="848"/>
      <point x="348" y="848" type="curve" smooth="yes"/>
      <point x="417.346" y="848"/>
      <point x="447.956" y="806.876"/>
      <point x="454" y="715" type="curve" smooth="yes"/>
      <point x="459" y="639" type="line"/>
      <point x="615" y="639" type="line"/>
      <point x="620" y="714" type="line" smooth="yes"/>
      <point x="626.129" y="805.933"/>
      <point x="656.651" y="848"/>
      <point x="725" y="848" type="curve" smooth="yes"/>
      <point x="797" y="848"/>
      <point x="831" y="805.073"/>
      <point x="831" y="711" type="curve" smooth="yes"/>
      <point x="831" y="414" type="line"/>
    </contour>
    <contour>
      <point x="833" y="438" type="line"/>
      <point x="833" y="243" type="line" smooth="yes"/>
      <point x="833" y="161.35"/>
      <point x="806.573" y="124"/>
      <point x="749" y="124" type="curve" smooth="yes"/>
      <point x="690.773" y="124"/>
      <point x="665" y="161.35"/>
      <point x="665" y="243" type="curve" smooth="yes"/>
      <point x="665" y="320" type="line" smooth="yes"/>
      <point x="665" y="402.735"/>
      <point x="695.476" y="430"/>
      <point x="745" y="430" type="curve" smooth="yes"/>
      <point x="805.278" y="430"/>
      <point x="838.333" y="390.754"/>
      <point x="850" y="315" type="curve"/>
      <point x="852" y="460" type="line"/>
      <point x="825" y="460" type="line"/>
      <point x="807.824" y="529.203"/>
      <point x="765.992" y="572"/>
      <point x="681" y="572" type="curve" smooth="yes"/>
      <point x="559.324" y="572"/>
      <point x="501" y="496.198"/>
      <point x="501" y="335" type="curve" smooth="yes"/>
      <point x="501" y="244" type="line" smooth="yes"/>
      <point x="501" y="67.3333"/>
      <point x="582.341" y="-21"/>
      <point x="748" y="-21" type="curve" smooth="yes"/>
      <point x="913.023" y="-21"/>
      <point x="997" y="71.4437"/>
      <point x="997" y="261" type="curve" smooth="yes"/>
      <point x="997" y="435" type="line"/>
    </contour>
    <contour>
      <point x="819" y="1047" type="line" smooth="yes"/>
      <point x="965.789" y="1047"/>
      <point x="1036" y="1130.8"/>
      <point x="1036" y="1306" type="curve" smooth="yes"/>
      <point x="1036" y="1404" type="line" smooth="yes"/>
      <point x="1036" y="1560"/>
      <point x="966.686" y="1636"/>
      <point x="825" y="1636" type="curve" smooth="yes"/>
      <point x="685.667" y="1636"/>
      <point x="616" y="1563"/>
      <point x="616" y="1417" type="curve" smooth="yes"/>
      <point x="616" y="1398" type="line" smooth="yes"/>
      <point x="616" y="1349.61"/>
      <point x="623.806" y="1302.22"/>
      <point x="637" y="1272" type="curve"/>
      <point x="783" y="1272" type="line"/>
      <point x="774" y="1305.74"/>
      <point x="769" y="1357.28"/>
      <point x="769" y="1395" type="curve" smooth="yes"/>
      <point x="769" y="1410" type="line" smooth="yes"/>
      <point x="769" y="1466.23"/>
      <point x="787.136" y="1494"/>
      <point x="826" y="1494" type="curve" smooth="yes"/>
      <point x="865.03" y="1494"/>
      <point x="882" y="1466.55"/>
      <point x="882" y="1411" type="curve" smooth="yes"/>
      <point x="882" y="1317" type="line" smooth="yes"/>
      <point x="882" y="1229.09"/>
      <point x="851.036" y="1193"/>
      <point x="780" y="1193" type="curve" smooth="yes"/>
      <point x="710" y="1193" type="line"/>
      <point x="710" y="1047" type="line"/>
    </contour>
  </outline>
</glyph>
<glyph name="Nnasmall1.kn" format="2">
  <outline>
    <contour>
      <point x="194" y="-484" type="line"/>
      <point x="194" y="-289" type="line" smooth="yes"/>
      <point x="194" y="-171.698"/>
      <point x="141.311" y="-112"/>
      <point x="38" y="-112" type="curve" smooth="yes"/>
      <point x="-39.9549" y="-112"/>
      <point x="-82.2256" y="-146.019"/>
      <point x="-89" y="-206" type="curve"/>
      <point x="-93" y="-206" type="line"/>
      <point x="-99.7727" y="-146.019"/>
      <point x="-142.068" y="-112"/>
      <point x="-220" y="-112" type="curve" smooth="yes"/>
      <point x="-323.289" y="-112"/>
      <point x="-377" y="-169.349"/>
      <point x="-377" y="-282" type="curve" smooth="yes"/>
      <point x="-377" y="-307" type="line" smooth="yes"/>
      <point x="-377" y="-387.504"/>
      <point x="-345.294" y="-428.241"/>
      <point x="-279" y="-436" type="curve"/>
      <point x="-279" y="-436"/>
      <point x="-279" y="-440"/>
      <point x="-279" y="-440" type="curve"/>
      <point x="-347.243" y="-448.182"/>
      <point x="-378" y="-491.136"/>
      <point x="-378" y="-575" type="curve" smooth="yes"/>
      <point x="-378" y="-587" type="line" smooth="yes"/>
      <point x="-378" y="-692.033"/>
      <point x="-326.683" y="-742"/>
      <point x="-216" y="-742" type="curve" smooth="yes"/>
      <point x="-201.263" y="-742"/>
      <point x="-181.614" y="-740.833"/>
      <point x="-160" y="-735" type="curve"/>
      <point x="-150" y="-634" type="line"/>
      <point x="-161.733" y="-635.6"/>
      <point x="-178.356" y="-638"/>
      <point x="-194" y="-638" type="curve" smooth="yes"/>
      <point x="-237" y="-638"/>
      <point x="-256" y="-619.284"/>
      <point x="-256" y="-572" type="curve" smooth="yes"/>
      <point x="-256" y="-562" type="line" smooth="yes"/>
      <point x="-256" y="-515"/>
      <point x="-237.313" y="-496.705"/>
      <point x="-191" y="-493" type="curve" smooth="yes"/>
      <point x="-166" y="-491" type="line"/>
      <point x="-166" y="-389" type="line"/>
      <point x="-193" y="-388" type="line" smooth="yes"/>
      <point x="-237.016" y="-386.37"/>
      <point x="-255" y="-365.707"/>
      <point x="-255" y="-312" type="curve" smooth="yes"/>
      <point x="-255" y="-289" type="line" smooth="yes"/>
      <point x="-255" y="-243.343"/>
      <point x="-239.308" y="-221"/>
      <point x="-204" y="-221" type="curve" smooth="yes"/>
      <point x="-169.66" y="-221"/>
      <point x="-154.684" y="-243.379"/>
      <point x="-152" y="-289" type="curve" smooth="yes"/>
      <point x="-149" y="-340" type="line"/>
      <point x="-34" y="-340" type="line"/>
      <point x="-31" y="-290" type="line" smooth="yes"/>
      <point x="-28.2585" y="-244.308"/>
      <point x="-12" y="-221"/>
      <point x="23" y="-221" type="curve" smooth="yes"/>
      <point x="57.9444" y="-221"/>
      <point x="74" y="-244.351"/>
      <point x="74" y="-293" type="curve" smooth="yes"/>
      <point x="74" y="-492" type="line"/>
    </contour>
    <contour>
      <point x="76.9313" y="-467.515" type="line"/>
      <point x="76.9313" y="-580.619" type="line" smooth="yes"/>
      <point x="76.9313" y="-621.871"/>
      <point x="65.4026" y="-640.988"/>
      <point x="39.2009" y="-640.988" type="curve" smooth="yes"/>
      <point x="12.4447" y="-640.988"/>
      <point x="0.37009" y="-621.871"/>
      <point x="0.37009" y="-580.619" type="curve" smooth="yes"/>
      <point x="0.37009" y="-538.993" type="line" smooth="yes"/>
      <point x="0.37009" y="-501.61"/>
      <point x="12.7995" y="-488.057"/>
      <point x="34.9563" y="-488.057" type="curve" smooth="yes"/>
      <point x="65.1171" y="-488.057"/>
      <point x="81.1224" y="-507.551"/>
      <point x="89.0365" y="-546.539" type="curve"/>
      <point x="98.7835" y="-448.685" type="line"/>
      <point x="70.3722" y="-448.685" type="line"/>
      <point x="62.1277" y="-412.563"/>
      <point x="36.4427" y="-391.774"/>
      <point x="-8.00579" y="-391.774" type="curve" smooth="yes"/>
      <point x="-79.0914" y="-391.774"/>
      <point x="-116.28" y="-437.52"/>
      <point x="-116.28" y="-536.635" type="curve" smooth="yes"/>
      <point x="-116.28" y="-581.348" type="line" smooth="yes"/>
      <point x="-116.28" y="-689.037"/>
      <point x="-64.5458" y="-741.703"/>
      <point x="37" y="-741.702" type="curve" smooth="yes"/>
      <point x="140.771" y="-741.702"/>
      <point x="194.21" y="-686.836"/>
      <point x="194.21" y="-569.243" type="curve" smooth="yes"/>
      <point x="194.21" y="-458" type="line"/>
    </contour>
  </outline>
</glyph>
<glyph name="Nukta2.kn" format="2">
  <anchor x="0" y="0" name="_nukta"/>
  <outline>
    <contour>
      <point x="-255" y="-97" type="curve" smooth="yes"/>
      <point x="-308.893" y="-97"/>
      <point x="-341" y="-131.515"/>
      <point x="-341" y="-205" type="curve" smooth="yes"/>
      <point x="-341" y="-279.52"/>
      <point x="-308.893" y="-314"/>
      <point x="-255" y="-314" type="curve" smooth="yes"/>
      <point x="-201.107" y="-314"/>
      <point x="-169" y="-279.52"/>
      <point x="-169" y="-205" type="curve" smooth="yes"/>
      <point x="-169" y="-131.515"/>
      <point x="-201.107" y="-97"/>
    </contour>
    <contour>
      <point x="255" y="-97" type="curve" smooth="yes"/>
      <point x="201.107" y="-97"/>
      <point x="169" y="-131.515"/>
      <point x="169" y="-205" type="curve" smooth="yes"/>
      <point x="169" y="-279.52"/>
      <point x="201.107" y="-314"/>
      <point x="255" y="-314" type="curve" smooth="yes"/>
      <point x="308.893" y="-314"/>
      <point x="341" y="-279.52"/>
      <point x="341" y="-205" type="curve" smooth="yes"/>
      <point x="341" y="-131.515"/>
      <point x="308.893" y="-97"/>
    </contour>
  </outline>
  <guideline angle="90" x="-6" y="0"/>
</glyph>
<glyph name="NyamatraU.kn" format="2">
  <advance width="1695"/>
  <outline>
    <contour>
      <point x="939" y="-166" type="line"/>
      <point x="898.831" y="19"/>
      <point x="844.987" y="212"/>
      <point x="794" y="331" type="curve"/>
      <point x="719" y="165" type="line"/>
      <point x="726.966" y="56"/>
      <point x="742.897" y="-63"/>
      <point x="752" y="-166" type="curve"/>
    </contour>
    <contour>
      <point x="637" y="1058" type="curve" smooth="yes"/>
      <point x="694.333" y="1058"/>
      <point x="723" y="1018"/>
      <point x="723" y="928" type="curve" smooth="yes"/>
      <point x="723" y="602" type="line" smooth="yes"/>
      <point x="723" y="518"/>
      <point x="720" y="433"/>
      <point x="709" y="363" type="curve"/>
      <point x="698" y="334" type="line"/>
      <point x="665.487" y="222.263"/>
      <point x="593.41" y="133"/>
      <point x="458" y="133" type="curve" smooth="yes"/>
      <point x="351.189" y="133"/>
      <point x="296" y="182.685"/>
      <point x="296" y="280" type="curve" smooth="yes"/>
      <point x="296" y="287" type="line" smooth="yes"/>
      <point x="296" y="384.315"/>
      <point x="351.53" y="434"/>
      <point x="460" y="434" type="curve" smooth="yes"/>
      <point x="578.97" y="434"/>
      <point x="654.318" y="369.333"/>
      <point x="691" y="240" type="curve"/>
      <point x="758" y="306" type="line"/>
      <point x="730.612" y="484.44"/>
      <point x="627.965" y="578"/>
      <point x="445" y="578" type="curve" smooth="yes"/>
      <point x="237.135" y="578"/>
      <point x="126" y="476"/>
      <point x="126" y="286" type="curve" smooth="yes"/>
      <point x="126" y="278" type="line" smooth="yes"/>
      <point x="126" y="84"/>
      <point x="238.614" y="-19"/>
      <point x="451" y="-19" type="curve" smooth="yes"/>
      <point x="614.019" y="-19"/>
      <point x="714.887" y="58"/>
      <point x="775" y="164" type="curve"/>
      <point x="820" y="206" type="line"/>
      <point x="880" y="310"/>
      <point x="895" y="452"/>
      <point x="895" y="597" type="curve" smooth="yes"/>
      <point x="895" y="928" type="line"/>
      <point x="893.849" y="980.161"/>
      <point x="869.093" y="1050.6"/>
      <point x="857" y="1093" type="curve" smooth="yes"/>
      <point x="834.01" y="1173.6"/>
      <point x="765.939" y="1220"/>
      <point x="663" y="1220" type="curve" smooth="yes"/>
      <point x="550.347" y="1220"/>
      <point x="483.735" y="1168.15"/>
      <point x="471" y="1069" type="curve"/>
      <point x="465" y="1069" type="line"/>
      <point x="452.335" y="1168.15"/>
      <point x="388.036" y="1220"/>
      <point x="276" y="1220" type="curve" smooth="yes"/>
      <point x="124.652" y="1220"/>
      <point x="50" y="1132.43"/>
      <point x="50" y="941" type="curve" smooth="yes"/>
      <point x="50" y="892" type="line" smooth="yes"/>
      <point x="50" y="804.313"/>
      <point x="62" y="741.284"/>
      <point x="85" y="694" type="curve"/>
      <point x="246" y="694" type="line"/>
      <point x="229" y="738.83"/>
      <point x="216" y="802.361"/>
      <point x="216" y="890" type="curve" smooth="yes"/>
      <point x="216" y="931" type="line" smooth="yes"/>
      <point x="216" y="1019"/>
      <point x="243.341" y="1058"/>
      <point x="299" y="1058" type="curve" smooth="yes"/>
      <point x="353.682" y="1058"/>
      <point x="380.163" y="1018.96"/>
      <point x="383" y="931" type="curve" smooth="yes"/>
      <point x="390" y="714" type="line"/>
      <point x="546" y="714" type="line"/>
      <point x="553" y="931" type="line" smooth="yes"/>
      <point x="555.838" y="1018.98"/>
      <point x="582.318" y="1058"/>
    </contour>
    <contour>
      <point x="1434" y="298" type="line" smooth="yes"/>
      <point x="1434" y="191"/>
      <point x="1397.68" y="137"/>
      <point x="1321" y="137" type="curve" smooth="yes"/>
      <point x="1246" y="137"/>
      <point x="1210" y="191"/>
      <point x="1210" y="296" type="curve" smooth="yes"/>
      <point x="1210" y="489"/>
      <point x="1242" y="736"/>
      <point x="1242" y="943" type="curve"/>
      <point x="1240.46" y="1132.47"/>
      <point x="1174.69" y="1220"/>
      <point x="1038" y="1220" type="curve" smooth="yes"/>
      <point x="935.465" y="1220"/>
      <point x="876.585" y="1176.43"/>
      <point x="861" y="1093" type="curve"/>
      <point x="837" y="1093" type="line"/>
      <point x="857" y="714" type="line"/>
      <point x="895" y="714" type="line"/>
      <point x="895" y="925" type="line" smooth="yes"/>
      <point x="895" y="1017.16"/>
      <point x="924.931" y="1058"/>
      <point x="988" y="1058" type="curve" smooth="yes"/>
      <point x="1046.67" y="1058"/>
      <point x="1076" y="1017.77"/>
      <point x="1076" y="927" type="curve" smooth="yes"/>
      <point x="1076" y="735"/>
      <point x="1041" y="485"/>
      <point x="1041" y="293" type="curve" smooth="yes"/>
      <point x="1041" y="85"/>
      <point x="1137" y="-21"/>
      <point x="1323" y="-21" type="curve" smooth="yes"/>
      <point x="1513" y="-21"/>
      <point x="1606" y="88"/>
      <point x="1606" y="302" type="curve" smooth="yes"/>
      <point x="1605.95" y="892" type="line" smooth="yes"/>
      <point x="1605.93" y="1106"/>
      <point x="1529.95" y="1205"/>
      <point x="1364.95" y="1205" type="curve" smooth="yes"/>
      <point x="1345.95" y="1205"/>
      <point x="1328.95" y="1204"/>
      <point x="1314.95" y="1203" type="curve"/>
      <point x="1314.95" y="1044" type="line"/>
      <point x="1321.95" y="1045"/>
      <point x="1326.95" y="1045"/>
      <point x="1330.95" y="1045" type="curve" smooth="yes"/>
      <point x="1400.62" y="1045"/>
      <point x="1433.94" y="999.412"/>
      <point x="1433.95" y="890" type="curve" smooth="yes"/>
    </contour>
  </outline>
</glyph>
<glyph name="Pasmall1.kn" format="2">
  <outline>
    <contour>
      <point x="-15" y="-84" type="curve" smooth="yes"/>
      <point x="-29" y="-84"/>
      <point x="-42" y="-85"/>
      <point x="-53" y="-86" type="curve"/>
      <point x="-53" y="-192" type="line"/>
      <point x="-50" y="-192"/>
      <point x="-49" y="-192"/>
      <point x="-45" y="-192" type="curve" smooth="yes"/>
      <point x="-8" y="-192"/>
      <point x="10" y="-215"/>
      <point x="10" y="-270" type="curve" smooth="yes"/>
      <point x="10" y="-533" type="line" smooth="yes"/>
      <point x="10" y="-579"/>
      <point x="-4.66667" y="-599"/>
      <point x="-34" y="-599" type="curve" smooth="yes"/>
      <point x="-64" y="-599"/>
      <point x="-79" y="-578"/>
      <point x="-81" y="-532" type="curve" smooth="yes"/>
      <point x="-85" y="-452" type="line"/>
      <point x="-152" y="-452" type="line"/>
      <point x="-140" y="-616" type="line"/>
      <point x="-134" y="-675"/>
      <point x="-90" y="-708"/>
      <point x="-14" y="-708" type="curve" smooth="yes"/>
      <point x="82" y="-708"/>
      <point x="132" y="-650"/>
      <point x="132" y="-536" type="curve" smooth="yes"/>
      <point x="132" y="-263" type="line" smooth="yes"/>
      <point x="132" y="-141"/>
      <point x="88" y="-84"/>
    </contour>
    <contour>
      <point x="-250" y="-599" type="curve" smooth="yes"/>
      <point x="-281" y="-599"/>
      <point x="-297" y="-578"/>
      <point x="-297" y="-532" type="curve" smooth="yes"/>
      <point x="-297" y="-465" type="line" smooth="yes"/>
      <point x="-297" y="-423"/>
      <point x="-285" y="-403"/>
      <point x="-256" y="-403" type="curve" smooth="yes"/>
      <point x="-244" y="-403"/>
      <point x="-237" y="-405"/>
      <point x="-227" y="-409" type="curve"/>
      <point x="-234" y="-310" type="line"/>
      <point x="-248" y="-303"/>
      <point x="-265" y="-300"/>
      <point x="-289" y="-300" type="curve" smooth="yes"/>
      <point x="-374" y="-300"/>
      <point x="-417" y="-352"/>
      <point x="-417" y="-458" type="curve" smooth="yes"/>
      <point x="-417" y="-532" type="line" smooth="yes"/>
      <point x="-417" y="-647"/>
      <point x="-365" y="-708"/>
      <point x="-264" y="-708" type="curve" smooth="yes"/>
      <point x="-191" y="-708"/>
      <point x="-151" y="-675"/>
      <point x="-144" y="-616" type="curve"/>
      <point x="-110" y="-616" type="line"/>
      <point x="-140" y="-452" type="line"/>
      <point x="-199" y="-452" type="line"/>
      <point x="-203" y="-532" type="line" smooth="yes"/>
      <point x="-205" y="-578"/>
      <point x="-219" y="-599"/>
    </contour>
  </outline>
</glyph>
<glyph name="PhaHalant.kn" format="2">
  <advance width="1530"/>
  <anchor x="530" y="0" name="nukta"/>
  <outline>
    <component base="PaHalant.kn"/>
    <contour>
      <point x="529" y="-393" type="curve" smooth="yes"/>
      <point x="587" y="-393"/>
      <point x="615" y="-355.667"/>
      <point x="615" y="-281" type="curve" smooth="yes"/>
      <point x="615" y="-265" type="line" smooth="yes"/>
      <point x="615" y="-146"/>
      <point x="580" y="-44"/>
      <point x="529" y="32" type="curve"/>
      <point x="479" y="-44"/>
      <point x="444" y="-146"/>
      <point x="444" y="-265" type="curve" smooth="yes"/>
      <point x="444" y="-281" type="line" smooth="yes"/>
      <point x="444" y="-355.667"/>
      <point x="472" y="-393"/>
    </contour>
  </outline>
  <guideline angle="0" x="0" y="-274"/>
  <guideline angle="90" x="418" y="0"/>
</glyph>
<glyph name="PhaNuktamatraU.kn" format="2">
  <advance width="1429"/>
  <outline>
    <component base="PhamatraU.kn"/>
    <contour>
      <point x="300.172" y="-316" type="curve" smooth="yes"/>
      <point x="246.279" y="-316"/>
      <point x="214.172" y="-350.515"/>
      <point x="214.172" y="-424" type="curve" smooth="yes"/>
      <point x="214.172" y="-498.52"/>
      <point x="246.279" y="-533"/>
      <point x="300.172" y="-533" type="curve" smooth="yes"/>
      <point x="354.065" y="-533"/>
      <point x="386.172" y="-498.52"/>
      <point x="386.172" y="-424" type="curve" smooth="yes"/>
      <point x="386.172" y="-350.515"/>
      <point x="354.065" y="-316"/>
    </contour>
    <contour>
      <point x="759.907" y="-316" type="curve" smooth="yes"/>
      <point x="706.014" y="-316"/>
      <point x="673.907" y="-350.515"/>
      <point x="673.907" y="-424" type="curve" smooth="yes"/>
      <point x="673.907" y="-498.52"/>
      <point x="706.014" y="-533"/>
      <point x="759.907" y="-533" type="curve" smooth="yes"/>
      <point x="813.801" y="-533"/>
      <point x="845.907" y="-498.52"/>
      <point x="845.907" y="-424" type="curve" smooth="yes"/>
      <point x="845.907" y="-350.515"/>
      <point x="813.801" y="-316"/>
    </contour>
  </outline>
  <guideline angle="90" x="433" y="0"/>
</glyph>
<glyph name="PhamatraAu.kn" format="2">
  <advance width="1605"/>
  <anchor x="530" y="0" name="nukta"/>
  <outline>
    <component base="PamatraAu.kn"/>
    <contour>
      <point x="530" y="-393" type="curve" smooth="yes"/>
      <point x="588" y="-393"/>
      <point x="616" y="-355.667"/>
      <point x="616" y="-281" type="curve" smooth="yes"/>
      <point x="616" y="-265" type="line" smooth="yes"/>
      <point x="616" y="-146"/>
      <point x="581" y="-44"/>
      <point x="530" y="32" type="curve"/>
      <point x="480" y="-44"/>
      <point x="445" y="-146"/>
      <point x="445" y="-265" type="curve" smooth="yes"/>
      <point x="445" y="-281" type="line" smooth="yes"/>
      <point x="445" y="-355.667"/>
      <point x="473" y="-393"/>
    </contour>
  </outline>
  <guideline angle="0" x="0" y="-274"/>
  <guideline angle="90" x="418" y="0"/>
</glyph>
<glyph name="PhamatraI.kn" format="2">
  <advance width="1051"/>
  <anchor x="525" y="0" name="nukta"/>
  <outline>
    <component base="PamatraI.kn"/>
    <contour>
      <point x="525" y="-393" type="curve" smooth="yes"/>
      <point x="583" y="-393"/>
      <point x="611" y="-355.667"/>
      <point x="611" y="-281" type="curve" smooth="yes"/>
      <point x="611" y="-265" type="line" smooth="yes"/>
      <point x="611" y="-146"/>
      <point x="576" y="-44"/>
      <point x="525" y="32" type="curve"/>
      <point x="475" y="-44"/>
      <point x="440" y="-146"/>
      <point x="440" y="-265" type="curve" smooth="yes"/>
      <point x="440" y="-281" type="line" smooth="yes"/>
      <point x="440" y="-355.667"/>
      <point x="468" y="-393"/>
    </contour>
  </outline>
  <guideline angle="0" x="0" y="-274"/>
  <guideline angle="90" x="411" y="0"/>
</glyph>
<glyph name="Phasmall1.kn" format="2">
  <outline>
    <component base="Pasmall1.kn"/>
    <contour>
      <point x="-142" y="-676" type="curve"/>
      <point x="-178" y="-716"/>
      <point x="-204" y="-765"/>
      <point x="-204" y="-827" type="curve" smooth="yes"/>
      <point x="-204" y="-833" type="line" smooth="yes"/>
      <point x="-204" y="-884"/>
      <point x="-184" y="-908"/>
      <point x="-142" y="-908" type="curve" smooth="yes"/>
      <point x="-101" y="-908"/>
      <point x="-81" y="-884"/>
      <point x="-81" y="-833" type="curve" smooth="yes"/>
      <point x="-81" y="-827" type="line" smooth="yes"/>
      <point x="-81" y="-765"/>
      <point x="-107" y="-716"/>
    </contour>
  </outline>
</glyph>
<glyph name="RamatraAa.kn" format="2">
  <advance width="1498"/>
  <outline>
    <component base="matraAa.kn" xOffset="609"/>
    <contour>
      <point x="237" y="1073" type="line"/>
      <point x="237" y="1041" type="line"/>
      <point x="136.688" y="1012.97"/>
      <point x="87" y="924.158"/>
      <point x="87" y="756" type="curve" smooth="yes"/>
      <point x="87" y="365" type="line" smooth="yes"/>
      <point x="87" y="104"/>
      <point x="200.331" y="-24"/>
      <point x="429" y="-24" type="curve" smooth="yes"/>
      <point x="658.674" y="-24"/>
      <point x="770" y="104"/>
      <point x="770" y="365" type="curve" smooth="yes"/>
      <point x="770" y="756" type="line" smooth="yes"/>
      <point x="770" y="924.158"/>
      <point x="721.312" y="1011.97"/>
      <point x="621" y="1040" type="curve"/>
      <point x="621" y="1073" type="line"/>
    </contour>
    <contour>
      <point x="429" y="134" type="curve" smooth="yes"/>
      <point x="314.655" y="134"/>
      <point x="259" y="212"/>
      <point x="259" y="369" type="curve" smooth="yes"/>
      <point x="259" y="810" type="line" smooth="yes"/>
      <point x="259" y="967"/>
      <point x="314.655" y="1046"/>
      <point x="429" y="1046" type="curve" smooth="yes"/>
      <point x="543.679" y="1046"/>
      <point x="598" y="967"/>
      <point x="598" y="810" type="curve" smooth="yes"/>
      <point x="598" y="369" type="line" smooth="yes"/>
      <point x="598" y="212"/>
      <point x="543.679" y="134"/>
    </contour>
    <contour>
      <point x="580" y="1046" type="line"/>
      <point x="580" y="1193" type="line"/>
      <point x="87" y="1193" type="line"/>
      <point x="87" y="1046" type="line"/>
    </contour>
  </outline>
  <guideline angle="90" x="252" y="0"/>
  <guideline angle="90" x="605" y="0"/>
</glyph>
<glyph name="Rasmall2.kn" format="2">
  <outline>
    <contour>
      <point x="234.167" y="-517.833" type="line"/>
      <point x="238.392" y="-549.628"/>
      <point x="241.583" y="-589.844"/>
      <point x="241.583" y="-634" type="curve" smooth="yes"/>
      <point x="241.583" y="-767.538"/>
      <point x="168.019" y="-836"/>
      <point x="-3.25" y="-836" type="curve" smooth="yes"/>
      <point x="-85.6006" y="-836"/>
      <point x="-173.27" y="-826.356"/>
      <point x="-232.417" y="-809.5" type="curve"/>
      <point x="-214.083" y="-908.333" type="line"/>
      <point x="-159.717" y="-923.115"/>
      <point x="-75.2628" y="-932.417"/>
      <point x="6.08333" y="-932.417" type="curve" smooth="yes"/>
      <point x="243.94" y="-932.417"/>
      <point x="351.583" y="-832.777"/>
      <point x="351.583" y="-643.917" type="curve" smooth="yes"/>
      <point x="351.583" y="-596.234"/>
      <point x="346.172" y="-550.338"/>
      <point x="338.667" y="-517.833" type="curve"/>
    </contour>
  </outline>
</glyph>
<glyph name="RraObsoleteHalant.kn" format="2">
  <advance width="2124"/>
  <outline>
    <component base="RraObsolete.kn"/>
    <component base="Halant.kn" xOffset="1648"/>
    <contour>
      <point x="1533" y="847" type="line" smooth="yes"/>
      <point x="1533" y="971.71"/>
      <point x="1490.23" y="1026.44"/>
      <point x="1427" y="1039" type="curve"/>
      <point x="1427" y="1074" type="line"/>
      <point x="1240" y="1074" type="line"/>
      <point x="1240" y="1045" type="line"/>
      <point x="1329.21" y="1045"/>
      <point x="1368" y="995.166"/>
      <point x="1368" y="874" type="curve" smooth="yes"/>
      <point x="1368" y="826" type="line" smooth="yes"/>
      <point x="1368" y="737.664"/>
      <point x="1335.98" y="693"/>
      <point x="1270" y="693" type="curve" smooth="yes"/>
      <point x="1224" y="693"/>
      <point x="1188" y="712"/>
      <point x="1168" y="746" type="curve"/>
      <point x="1109" y="699" type="line"/>
      <point x="1136.29" y="598"/>
      <point x="1204.51" y="543"/>
      <point x="1321" y="543" type="curve" smooth="yes"/>
      <point x="1462.33" y="543"/>
      <point x="1533" y="631.088"/>
      <point x="1533" y="804" type="curve" smooth="yes"/>
    </contour>
    <contour>
      <point x="1397" y="1045" type="line"/>
      <point x="1397" y="1193" type="line"/>
      <point x="1228" y="1193" type="line"/>
      <point x="1228" y="1045" type="line"/>
    </contour>
  </outline>
  <guideline angle="90" x="1614" y="0"/>
</glyph>
<glyph name="RraObsoletematraO.kn" format="2">
  <advance width="2535"/>
  <outline>
    <component base="RraObsoletematraE.kn"/>
    <contour>
      <point x="2048" y="1220" type="curve" smooth="yes"/>
      <point x="1781" y="1220"/>
      <point x="1645" y="1072"/>
      <point x="1645" y="782" type="curve" smooth="yes"/>
      <point x="1645" y="440" type="line" smooth="yes"/>
      <point x="1645" y="227.493"/>
      <point x="1566.34" y="137"/>
      <point x="1412" y="137" type="curve" smooth="yes"/>
      <point x="1263" y="137"/>
      <point x="1181" y="218.633"/>
      <point x="1168" y="387" type="curve"/>
      <point x="1095" y="371" type="line"/>
      <point x="1097.03" y="97"/>
      <point x="1225.32" y="-21"/>
      <point x="1445" y="-21" type="curve" smooth="yes"/>
      <point x="1694.46" y="-21"/>
      <point x="1814" y="128"/>
      <point x="1814" y="420" type="curve" smooth="yes"/>
      <point x="1814" y="779" type="line" smooth="yes"/>
      <point x="1814" y="967"/>
      <point x="1885" y="1063"/>
      <point x="2048" y="1063" type="curve" smooth="yes"/>
      <point x="2210" y="1063"/>
      <point x="2280" y="964"/>
      <point x="2280" y="778" type="curve" smooth="yes"/>
      <point x="2280" y="538" type="line"/>
      <point x="2448" y="534" type="line"/>
      <point x="2448" y="782" type="line" smooth="yes"/>
      <point x="2448" y="1072"/>
      <point x="2312" y="1220"/>
    </contour>
    <contour>
      <point x="2448" y="542" type="line"/>
      <point x="2282" y="545" type="line"/>
      <point x="2282" y="263" type="line" smooth="yes"/>
      <point x="2282" y="171"/>
      <point x="2255" y="129"/>
      <point x="2197" y="129" type="curve" smooth="yes"/>
      <point x="2138" y="129"/>
      <point x="2112" y="171"/>
      <point x="2112" y="263" type="curve" smooth="yes"/>
      <point x="2112" y="453" type="line" smooth="yes"/>
      <point x="2112" y="541"/>
      <point x="2143" y="570"/>
      <point x="2193" y="570" type="curve" smooth="yes"/>
      <point x="2254" y="570"/>
      <point x="2287" y="527"/>
      <point x="2299" y="444" type="curve"/>
      <point x="2301" y="601" type="line"/>
      <point x="2274" y="601" type="line"/>
      <point x="2257" y="671"/>
      <point x="2215" y="714"/>
      <point x="2129" y="714" type="curve" smooth="yes"/>
      <point x="2005" y="714"/>
      <point x="1946" y="634"/>
      <point x="1946" y="464" type="curve" smooth="yes"/>
      <point x="1946" y="264" type="line" smooth="yes"/>
      <point x="1946" y="74"/>
      <point x="2028" y="-21"/>
      <point x="2196" y="-21" type="curve" smooth="yes"/>
      <point x="2363" y="-21"/>
      <point x="2448" y="78"/>
      <point x="2448" y="281" type="curve" smooth="yes"/>
    </contour>
  </outline>
  <guideline angle="0" x="0" y="-14"/>
</glyph>
<glyph name="RraObsoletesmall1.kn" format="2">
  <outline>
    <contour>
      <point x="-224" y="-111" type="curve" smooth="yes"/>
      <point x="-326" y="-111"/>
      <point x="-380" y="-166"/>
      <point x="-380" y="-284" type="curve" smooth="yes"/>
      <point x="-380" y="-395" type="line"/>
      <point x="-263" y="-395" type="line"/>
      <point x="-263" y="-272" type="line" smooth="yes"/>
      <point x="-263" y="-230.988"/>
      <point x="-253" y="-212"/>
      <point x="-227" y="-212" type="curve" smooth="yes"/>
      <point x="-200" y="-212"/>
      <point x="-188" y="-231"/>
      <point x="-188" y="-272" type="curve" smooth="yes"/>
      <point x="-188" y="-328" type="line" smooth="yes"/>
      <point x="-188" y="-365"/>
      <point x="-200" y="-379"/>
      <point x="-222" y="-379" type="curve" smooth="yes"/>
      <point x="-251" y="-379"/>
      <point x="-266" y="-359"/>
      <point x="-274" y="-320" type="curve"/>
      <point x="-284" y="-413" type="line"/>
      <point x="-257" y="-413" type="line"/>
      <point x="-248" y="-449"/>
      <point x="-219" y="-470"/>
      <point x="-176" y="-470" type="curve"/>
      <point x="-111" y="-424" type="line"/>
      <point x="-87" y="-401"/>
      <point x="-73" y="-372"/>
      <point x="-73" y="-318" type="curve" smooth="yes"/>
      <point x="-73" y="-272" type="line" smooth="yes"/>
      <point x="-73" y="-164"/>
      <point x="-124" y="-111"/>
    </contour>
    <contour>
      <point x="131" y="-470" type="line"/>
      <point x="131" y="-381" type="line"/>
      <point x="-160" y="-381" type="line"/>
      <point x="-176" y="-470" type="line"/>
    </contour>
    <contour>
      <point x="-261" y="-376" type="line"/>
      <point x="-380" y="-389" type="line"/>
      <point x="-380" y="-545" type="line" smooth="yes"/>
      <point x="-380" y="-675"/>
      <point x="-320" y="-743"/>
      <point x="-200" y="-743" type="curve" smooth="yes"/>
      <point x="-110" y="-743"/>
      <point x="-62" y="-706"/>
      <point x="-52" y="-642" type="curve"/>
      <point x="-48" y="-642" type="line"/>
      <point x="-38" y="-706"/>
      <point x="10" y="-743"/>
      <point x="100" y="-743" type="curve" smooth="yes"/>
      <point x="219" y="-743"/>
      <point x="280" y="-675"/>
      <point x="280" y="-545" type="curve" smooth="yes"/>
      <point x="280" y="-281" type="line" smooth="yes"/>
      <point x="280" y="-166"/>
      <point x="227" y="-111"/>
      <point x="123" y="-111" type="curve" smooth="yes"/>
      <point x="27" y="-111"/>
      <point x="-25" y="-160"/>
      <point x="-25" y="-256" type="curve" smooth="yes"/>
      <point x="-25" y="-287" type="line" smooth="yes"/>
      <point x="-25" y="-345"/>
      <point x="-3" y="-371"/>
      <point x="29" y="-377" type="curve"/>
      <point x="29" y="-394" type="line"/>
      <point x="128" y="-382" type="line"/>
      <point x="128" y="-381" type="line"/>
      <point x="103" y="-381"/>
      <point x="90" y="-361"/>
      <point x="90" y="-315" type="curve" smooth="yes"/>
      <point x="90" y="-266" type="line" smooth="yes"/>
      <point x="90" y="-230"/>
      <point x="101" y="-213"/>
      <point x="126" y="-213" type="curve" smooth="yes"/>
      <point x="151" y="-213"/>
      <point x="160" y="-229"/>
      <point x="160" y="-265" type="curve" smooth="yes"/>
      <point x="160" y="-541" type="line" smooth="yes"/>
      <point x="160" y="-604"/>
      <point x="136" y="-634"/>
      <point x="88" y="-634" type="curve" smooth="yes"/>
      <point x="38" y="-634"/>
      <point x="16" y="-605"/>
      <point x="11" y="-543" type="curve" smooth="yes"/>
      <point x="8" y="-500" type="line"/>
      <point x="-108" y="-500" type="line"/>
      <point x="-111" y="-543" type="line" smooth="yes"/>
      <point x="-116" y="-605"/>
      <point x="-137" y="-635"/>
      <point x="-187" y="-635" type="curve" smooth="yes"/>
      <point x="-235" y="-635"/>
      <point x="-261" y="-605"/>
      <point x="-261" y="-542" type="curve" smooth="yes"/>
    </contour>
  </outline>
</glyph>
<glyph name="ShamatraE.kn" format="2">
  <advance width="814"/>
  <outline>
    <component base="matraE.kn" xOffset="227"/>
    <contour>
      <point x="66" y="1193" type="line"/>
      <point x="66" y="1046" type="line"/>
      <point x="305" y="1046" type="line"/>
      <point x="327" y="1046" type="line"/>
      <point x="530" y="1046" type="line"/>
      <point x="530" y="1193" type="line"/>
    </contour>
    <contour>
      <point x="554" y="835" type="curve" smooth="yes"/>
      <point x="554" y="347" type="line" smooth="yes"/>
      <point x="554" y="204.34"/>
      <point x="501.994" y="134"/>
      <point x="397" y="134" type="curve" smooth="yes"/>
      <point x="297.295" y="134"/>
      <point x="243" y="193.682"/>
      <point x="243" y="313" type="curve" smooth="yes"/>
      <point x="243" y="328" type="line" smooth="yes"/>
      <point x="243" y="442.687"/>
      <point x="279.007" y="516.802"/>
      <point x="373" y="590" type="curve" smooth="yes"/>
      <point x="599" y="766" type="line"/>
      <point x="590" y="938" type="line"/>
      <point x="284" y="712" type="line" smooth="yes"/>
      <point x="126.154" y="595.421"/>
      <point x="71" y="496"/>
      <point x="71" y="322" type="curve" smooth="yes"/>
      <point x="71" y="307" type="line" smooth="yes"/>
      <point x="71" y="88.3578"/>
      <point x="182" y="-24"/>
      <point x="397" y="-24" type="curve" smooth="yes"/>
      <point x="617" y="-24"/>
      <point x="724" y="95"/>
      <point x="724" y="341" type="curve" smooth="yes"/>
      <point x="724" y="751" type="line" smooth="yes"/>
      <point x="724" y="923.328"/>
      <point x="692.284" y="1015.28"/>
      <point x="605" y="1044" type="curve"/>
      <point x="605" y="1075" type="line"/>
      <point x="216" y="1070" type="line"/>
      <point x="216" y="1042" type="line"/>
      <point x="129.925" y="1020.67"/>
      <point x="92" y="952.667"/>
      <point x="92" y="829" type="curve" smooth="yes"/>
      <point x="92" y="761" type="line"/>
      <point x="262" y="761" type="line"/>
      <point x="262" y="842" type="line" smooth="yes"/>
      <point x="262" y="978.343"/>
      <point x="308.378" y="1046"/>
      <point x="405" y="1046" type="curve" smooth="yes"/>
      <point x="508" y="1046"/>
      <point x="554" y="975.642"/>
    </contour>
  </outline>
</glyph>
<glyph name="Shasmall1.kn" format="2">
  <advance width="120"/>
  <outline>
    <contour>
      <point x="41.6667" y="-317" type="curve" smooth="yes"/>
      <point x="41.6667" y="-527.167" type="line" smooth="yes"/>
      <point x="41.6667" y="-602.353"/>
      <point x="13.5052" y="-636.667"/>
      <point x="-44.1667" y="-636.667" type="curve" smooth="yes"/>
      <point x="-96.1722" y="-636.667"/>
      <point x="-122.5" y="-609.859"/>
      <point x="-122.5" y="-559.167" type="curve" smooth="yes"/>
      <point x="-122.5" y="-554.333" type="line" smooth="yes"/>
      <point x="-122.5" y="-510.446"/>
      <point x="-103.838" y="-486.92"/>
      <point x="-57" y="-455.667" type="curve" smooth="yes"/>
      <point x="37.6667" y="-392.5" type="line" smooth="yes"/>
      <point x="62.9424" y="-375.635"/>
      <point x="78.8333" y="-355.601"/>
      <point x="90.3333" y="-332" type="curve"/>
      <point x="44" y="-220.5" type="line"/>
      <point x="39.9356" y="-255"/>
      <point x="27.2649" y="-282.357"/>
      <point x="-1.3333" y="-299.333" type="curve" smooth="yes"/>
      <point x="-110.833" y="-364.333" type="line" smooth="yes"/>
      <point x="-207.911" y="-421.959"/>
      <point x="-244.167" y="-471"/>
      <point x="-244.167" y="-557.667" type="curve" smooth="yes"/>
      <point x="-244.167" y="-564" type="line" smooth="yes"/>
      <point x="-244.167" y="-681.667"/>
      <point x="-175.318" y="-744.5"/>
      <point x="-42.3333" y="-744.5" type="curve" smooth="yes"/>
      <point x="94.342" y="-744.5"/>
      <point x="162.333" y="-673.349"/>
      <point x="162.333" y="-535.833" type="curve" smooth="yes"/>
      <point x="162.333" y="-352.167" type="line" smooth="yes"/>
      <point x="162.333" y="-304.833"/>
      <point x="158.162" y="-270"/>
      <point x="138" y="-235.667" type="curve"/>
      <point x="133.955" y="-230.961"/>
      <point x="93.9572" y="-184.436"/>
      <point x="90" y="-179.833" type="curve"/>
      <point x="61.9338" y="-131.804"/>
      <point x="16.2089" y="-108.833"/>
      <point x="-45.8333" y="-108.833" type="curve" smooth="yes"/>
      <point x="-168.998" y="-108.833"/>
      <point x="-232.833" y="-177.308"/>
      <point x="-232.833" y="-306.833" type="curve" smooth="yes"/>
      <point x="-232.833" y="-350" type="line"/>
      <point x="-112.167" y="-350" type="line"/>
      <point x="-112.167" y="-313.333" type="line" smooth="yes"/>
      <point x="-112.167" y="-246.889"/>
      <point x="-87.5" y="-214.833"/>
      <point x="-35.8333" y="-214.833" type="curve" smooth="yes"/>
      <point x="17" y="-214.833"/>
      <point x="41.6667" y="-246.497"/>
    </contour>
    <contour>
      <point x="163.167" y="-122.5" type="curve" smooth="yes"/>
      <point x="163.167" y="-15" type="line" smooth="yes"/>
      <point x="163.167" y="111.667"/>
      <point x="117.198" y="170.167"/>
      <point x="11" y="170.167" type="curve" smooth="yes"/>
      <point x="-2.5" y="170.167"/>
      <point x="-15.6667" y="168.833"/>
      <point x="-26.8333" y="166.667" type="curve"/>
      <point x="-26.8333" y="63.3333" type="line"/>
      <point x="-23.5" y="63.3333"/>
      <point x="-21.5" y="63.3333"/>
      <point x="-17.3333" y="63.3333" type="curve" smooth="yes"/>
      <point x="25.7904" y="63.3333"/>
      <point x="45.3333" y="39.5"/>
      <point x="45.3333" y="-19.8333" type="curve" smooth="yes"/>
      <point x="45.3333" y="-79.8333" type="line" smooth="yes"/>
      <point x="45.3333" y="-127.333"/>
      <point x="44.5" y="-156.5"/>
      <point x="44.5" y="-197.333" type="curve"/>
      <point x="117.333" y="-291" type="line"/>
      <point x="150.558" y="-259.667"/>
      <point x="163.167" y="-195"/>
    </contour>
  </outline>
</glyph>
<glyph name="SsamatraI.kn.1" format="2">
  <advance width="1056"/>
  <outline>
    <component base="matraI.kn" xOffset="244" yOffset="3"/>
    <contour>
      <point x="279" y="712" type="curve" smooth="yes"/>
      <point x="142" y="712"/>
      <point x="75" y="623"/>
      <point x="75" y="444" type="curve" smooth="yes"/>
      <point x="75" y="275" type="line" smooth="yes"/>
      <point x="75" y="77"/>
      <point x="157.723" y="-21"/>
      <point x="315" y="-21" type="curve" smooth="yes"/>
      <point x="440.958" y="-21"/>
      <point x="511.259" y="37.8421"/>
      <point x="522" y="151" type="curve"/>
      <point x="528" y="151" type="line"/>
      <point x="537.236" y="37.8421"/>
      <point x="599.368" y="-21"/>
      <point x="706" y="-21" type="curve" smooth="yes"/>
      <point x="817.905" y="-21"/>
      <point x="870.5" y="52.411"/>
      <point x="894" y="172" type="curve"/>
      <point x="899" y="171" type="line"/>
      <point x="883" y="-82" type="line"/>
      <point x="1050" y="-82" type="line"/>
      <point x="1010.84" y="210"/>
      <point x="942.308" y="618"/>
      <point x="910" y="831" type="curve"/>
      <point x="748" y="831" type="line"/>
      <point x="766.929" y="667"/>
      <point x="801" y="360"/>
      <point x="801" y="287" type="curve" smooth="yes"/>
      <point x="801" y="187.571"/>
      <point x="768.663" y="142"/>
      <point x="705" y="142" type="curve" smooth="yes"/>
      <point x="642.32" y="142"/>
      <point x="613.816" y="186.055"/>
      <point x="610" y="282" type="curve" smooth="yes"/>
      <point x="603" y="458" type="line"/>
      <point x="447" y="458" type="line"/>
      <point x="440" y="283" type="line" smooth="yes"/>
      <point x="436.122" y="186.058"/>
      <point x="407.653" y="140"/>
      <point x="341" y="140" type="curve" smooth="yes"/>
      <point x="275.327" y="140"/>
      <point x="242" y="186"/>
      <point x="242" y="284" type="curve" smooth="yes"/>
      <point x="242" y="440" type="line" smooth="yes"/>
      <point x="242" y="520.633"/>
      <point x="267" y="558"/>
      <point x="324" y="558" type="curve" smooth="yes"/>
      <point x="348" y="558"/>
      <point x="366" y="552.632"/>
      <point x="388" y="541" type="curve"/>
      <point x="379" y="688" type="line"/>
      <point x="353" y="704"/>
      <point x="322" y="712"/>
    </contour>
  </outline>
  <guideline angle="90" x="382" y="0"/>
</glyph>
<glyph name="TtamatraAa.kn" format="2">
  <advance width="1705"/>
  <outline>
    <component base="matraAa.kn" xOffset="816"/>
    <contour>
      <point x="245" y="288" type="curve" smooth="yes"/>
      <point x="245" y="403" type="line" smooth="yes"/>
      <point x="245" y="526.3"/>
      <point x="276.5" y="572.75"/>
      <point x="367" y="576" type="curve" smooth="yes"/>
      <point x="423" y="578" type="line"/>
      <point x="423" y="724" type="line"/>
      <point x="370" y="726" type="line" smooth="yes"/>
      <point x="280.45" y="729.4"/>
      <point x="247" y="772.5"/>
      <point x="247" y="881" type="curve" smooth="yes"/>
      <point x="247" y="921" type="line" smooth="yes"/>
      <point x="247" y="1029.6"/>
      <point x="284.4" y="1071"/>
      <point x="368" y="1071" type="curve" smooth="yes"/>
      <point x="397" y="1071"/>
      <point x="428" y="1068"/>
      <point x="452" y="1060" type="curve"/>
      <point x="438" y="1207" type="line"/>
      <point x="399" y="1217"/>
      <point x="366" y="1220"/>
      <point x="338" y="1220" type="curve" smooth="yes"/>
      <point x="162" y="1220"/>
      <point x="78" y="1128.8"/>
      <point x="78" y="932" type="curve" smooth="yes"/>
      <point x="78" y="891" type="line" smooth="yes"/>
      <point x="78" y="746"/>
      <point x="126.5" y="668"/>
      <point x="242" y="654" type="curve"/>
      <point x="242" y="648" type="line"/>
      <point x="126.5" y="634.7"/>
      <point x="76" y="550.65"/>
      <point x="76" y="398" type="curve" smooth="yes"/>
      <point x="76" y="280" type="line" smooth="yes"/>
      <point x="76" y="76"/>
      <point x="155.6" y="-21"/>
      <point x="323" y="-21" type="curve" smooth="yes"/>
      <point x="443.05" y="-21"/>
      <point x="512.35" y="37.7491"/>
      <point x="526" y="147" type="curve"/>
      <point x="532" y="147" type="line"/>
      <point x="545.65" y="37.7491"/>
      <point x="615.95" y="-21"/>
      <point x="736" y="-21" type="curve" smooth="yes"/>
      <point x="904.4" y="-21"/>
      <point x="983" y="76"/>
      <point x="983" y="280" type="curve" smooth="yes"/>
      <point x="983" y="398" type="line" smooth="yes"/>
      <point x="983" y="550.65"/>
      <point x="933.5" y="634.7"/>
      <point x="817" y="648" type="curve"/>
      <point x="817" y="654" type="line"/>
      <point x="931.796" y="666.25"/>
      <point x="980" y="734.35"/>
      <point x="980" y="861" type="curve" smooth="yes"/>
      <point x="980" y="883" type="line" smooth="yes"/>
      <point x="980" y="985.3"/>
      <point x="939.204" y="1028.65"/>
      <point x="879" y="1039" type="curve"/>
      <point x="879" y="1074" type="line"/>
      <point x="702" y="1074" type="line"/>
      <point x="702" y="1045" type="line"/>
      <point x="779.6" y="1045"/>
      <point x="812" y="1008"/>
      <point x="812" y="917" type="curve" smooth="yes"/>
      <point x="812" y="879" type="line" smooth="yes"/>
      <point x="812" y="770.5"/>
      <point x="779.5" y="729.4"/>
      <point x="689" y="726" type="curve" smooth="yes"/>
      <point x="636" y="724" type="line"/>
      <point x="636" y="578" type="line"/>
      <point x="692" y="576" type="line" smooth="yes"/>
      <point x="782.5" y="572.75"/>
      <point x="814" y="526.3"/>
      <point x="814" y="403" type="curve" smooth="yes"/>
      <point x="814" y="288" type="line" smooth="yes"/>
      <point x="814" y="189"/>
      <point x="783.25" y="142"/>
      <point x="716" y="142" type="curve" smooth="yes"/>
      <point x="648.65" y="142"/>
      <point x="617.85" y="188.05"/>
      <point x="614" y="288" type="curve" smooth="yes"/>
      <point x="608" y="443" type="line"/>
      <point x="451" y="443" type="line"/>
      <point x="445" y="288" type="line" smooth="yes"/>
      <point x="441.15" y="188.05"/>
      <point x="410.35" y="142"/>
      <point x="343" y="142" type="curve" smooth="yes"/>
      <point x="276.7" y="142"/>
      <point x="245" y="189"/>
    </contour>
    <contour>
      <point x="822" y="1045" type="line"/>
      <point x="822" y="1193" type="line"/>
      <point x="629" y="1193" type="line"/>
      <point x="629" y="1045" type="line"/>
    </contour>
  </outline>
</glyph>
<glyph name="TtamatraI.kn" format="2">
  <advance width="1060"/>
  <outline>
    <contour>
      <point x="749" y="1367" type="curve" smooth="yes"/>
      <point x="596.991" y="1367"/>
      <point x="522" y="1285.02"/>
      <point x="522" y="1116" type="curve" smooth="yes"/>
      <point x="522" y="1069" type="line" smooth="yes"/>
      <point x="522" y="927.9"/>
      <point x="582.345" y="857"/>
      <point x="700" y="857" type="curve" smooth="yes"/>
      <point x="768.395" y="857"/>
      <point x="805.011" y="889.764"/>
      <point x="818" y="938" type="curve"/>
      <point x="839" y="938" type="line"/>
      <point x="835" y="1084" type="line"/>
      <point x="824.567" y="1018.95"/>
      <point x="796.113" y="984"/>
      <point x="743" y="984" type="curve" smooth="yes"/>
      <point x="701.907" y="984"/>
      <point x="676" y="1008"/>
      <point x="676" y="1078" type="curve" smooth="yes"/>
      <point x="676" y="1119" type="line" smooth="yes"/>
      <point x="676" y="1196.19"/>
      <point x="700.05" y="1229"/>
      <point x="750" y="1229" type="curve" smooth="yes"/>
      <point x="800.875" y="1229"/>
      <point x="824" y="1196.19"/>
      <point x="824" y="1119" type="curve" smooth="yes"/>
      <point x="824" y="900" type="line" smooth="yes"/>
      <point x="824" y="777.5"/>
      <point x="788.356" y="729.749"/>
      <point x="689" y="726" type="curve" smooth="yes"/>
      <point x="636" y="724" type="line"/>
      <point x="636" y="578" type="line"/>
      <point x="692" y="576" type="line" smooth="yes"/>
      <point x="782.486" y="572.768"/>
      <point x="814" y="526.276"/>
      <point x="814" y="403" type="curve" smooth="yes"/>
      <point x="814" y="288" type="line" smooth="yes"/>
      <point x="814" y="189"/>
      <point x="783.255" y="142"/>
      <point x="716" y="142" type="curve" smooth="yes"/>
      <point x="648.66" y="142"/>
      <point x="617.869" y="188.054"/>
      <point x="614" y="288" type="curve" smooth="yes"/>
      <point x="608" y="443" type="line"/>
      <point x="528" y="443" type="line"/>
      <point x="532" y="147" type="line"/>
      <point x="545.665" y="37.7541"/>
      <point x="615.943" y="-21"/>
      <point x="736" y="-21" type="curve" smooth="yes"/>
      <point x="904.409" y="-21"/>
      <point x="983" y="76"/>
      <point x="983" y="280" type="curve" smooth="yes"/>
      <point x="983" y="398" type="line" smooth="yes"/>
      <point x="983" y="550.664"/>
      <point x="933.491" y="634.68"/>
      <point x="817" y="648" type="curve"/>
      <point x="817" y="654" type="line"/>
      <point x="933.183" y="668.591"/>
      <point x="982" y="749.882"/>
      <point x="982" y="901" type="curve" smooth="yes"/>
      <point x="982" y="1098" type="line" smooth="yes"/>
      <point x="982" y="1280.39"/>
      <point x="904.333" y="1367"/>
    </contour>
    <contour>
      <point x="338" y="1220" type="curve" smooth="yes"/>
      <point x="162" y="1220"/>
      <point x="78" y="1128.79"/>
      <point x="78" y="932" type="curve" smooth="yes"/>
      <point x="78" y="891" type="line" smooth="yes"/>
      <point x="78" y="746"/>
      <point x="126.521" y="668"/>
      <point x="242" y="654" type="curve"/>
      <point x="242" y="648" type="line"/>
      <point x="126.48" y="634.68"/>
      <point x="76" y="550.664"/>
      <point x="76" y="398" type="curve" smooth="yes"/>
      <point x="76" y="280" type="line" smooth="yes"/>
      <point x="76" y="76"/>
      <point x="155.612" y="-21"/>
      <point x="323" y="-21" type="curve" smooth="yes"/>
      <point x="443.057" y="-21"/>
      <point x="512.335" y="37.7541"/>
      <point x="526" y="147" type="curve"/>
      <point x="583" y="147" type="line"/>
      <point x="549" y="443" type="line"/>
      <point x="451" y="443" type="line"/>
      <point x="445" y="288" type="line" smooth="yes"/>
      <point x="441.131" y="188.054"/>
      <point x="410.34" y="142"/>
      <point x="343" y="142" type="curve" smooth="yes"/>
      <point x="276.706" y="142"/>
      <point x="245" y="189"/>
      <point x="245" y="288" type="curve" smooth="yes"/>
      <point x="245" y="403" type="line" smooth="yes"/>
      <point x="245" y="526.275"/>
      <point x="276.514" y="572.768"/>
      <point x="367" y="576" type="curve" smooth="yes"/>
      <point x="423" y="578" type="line"/>
      <point x="423" y="724" type="line"/>
      <point x="370" y="726" type="line" smooth="yes"/>
      <point x="280.465" y="729.379"/>
      <point x="247" y="772.5"/>
      <point x="247" y="881" type="curve" smooth="yes"/>
      <point x="247" y="921" type="line" smooth="yes"/>
      <point x="247" y="1029.62"/>
      <point x="284.382" y="1071"/>
      <point x="368" y="1071" type="curve" smooth="yes"/>
      <point x="397" y="1071"/>
      <point x="428" y="1068"/>
      <point x="452" y="1060" type="curve"/>
      <point x="438" y="1207" type="line"/>
      <point x="399" y="1217"/>
      <point x="366" y="1220"/>
    </contour>
  </outline>
</glyph>
<glyph name="Ttasmall1.kn" format="2">
  <outline>
    <contour>
      <point x="-217" y="-112" type="curve" smooth="yes"/>
      <point x="-327.833" y="-112"/>
      <point x="-379.5" y="-164.434"/>
      <point x="-379.5" y="-272.5" type="curve" smooth="yes"/>
      <point x="-379.5" y="-281.5" type="line" smooth="yes"/>
      <point x="-379.5" y="-358.262"/>
      <point x="-349.235" y="-396.88"/>
      <point x="-284" y="-403.5" type="curve"/>
      <point x="-284" y="-406.667" type="line"/>
      <point x="-349.314" y="-414.957"/>
      <point x="-381.5" y="-460.38"/>
      <point x="-381.5" y="-549.5" type="curve" smooth="yes"/>
      <point x="-381.5" y="-576.667" type="line" smooth="yes"/>
      <point x="-381.5" y="-687.333"/>
      <point x="-327.602" y="-742.333"/>
      <point x="-225.833" y="-742.333" type="curve" smooth="yes"/>
      <point x="-149.536" y="-742.333"/>
      <point x="-106.258" y="-710.267"/>
      <point x="-100.167" y="-651.333" type="curve"/>
      <point x="-96" y="-651.333" type="line"/>
      <point x="-89.909" y="-710.267"/>
      <point x="-46.631" y="-742.333"/>
      <point x="29.6667" y="-742.333" type="curve" smooth="yes"/>
      <point x="131.435" y="-742.333"/>
      <point x="185.333" y="-687.333"/>
      <point x="185.333" y="-576.667" type="curve" smooth="yes"/>
      <point x="185.333" y="-549.5" type="line" smooth="yes"/>
      <point x="185.333" y="-460.38"/>
      <point x="153.147" y="-414.957"/>
      <point x="87.8333" y="-406.667" type="curve"/>
      <point x="87.8333" y="-403.5" type="line"/>
      <point x="153.068" y="-396.88"/>
      <point x="183.333" y="-358.262"/>
      <point x="183.333" y="-281.5" type="curve" smooth="yes"/>
      <point x="183.333" y="-272.5" type="line" smooth="yes"/>
      <point x="183.333" y="-164.434"/>
      <point x="131.667" y="-112"/>
      <point x="20.8333" y="-112" type="curve" smooth="yes"/>
      <point x="5.83334" y="-112"/>
      <point x="-15.6667" y="-112.833"/>
      <point x="-39.1667" y="-118" type="curve"/>
      <point x="-49.1667" y="-220.5" type="line"/>
      <point x="-36.1667" y="-217.5"/>
      <point x="-18" y="-215.667"/>
      <point x="-1.8335" y="-215.667" type="curve" smooth="yes"/>
      <point x="42.1665" y="-215.667"/>
      <point x="61.6665" y="-233.833"/>
      <point x="61.6665" y="-279.5" type="curve" smooth="yes"/>
      <point x="61.6665" y="-284.5" type="line" smooth="yes"/>
      <point x="61.6665" y="-329.167"/>
      <point x="43.8807" y="-347.877"/>
      <point x="0.166496" y="-350.5" type="curve" smooth="yes"/>
      <point x="-33.1668" y="-352.5" type="line"/>
      <point x="-33.1668" y="-455.167" type="line"/>
      <point x="2.49983" y="-456.333" type="line" smooth="yes"/>
      <point x="45.1601" y="-457.729"/>
      <point x="62.4998" y="-481.721"/>
      <point x="62.4998" y="-542.834" type="curve" smooth="yes"/>
      <point x="62.4998" y="-565.167" type="line" smooth="yes"/>
      <point x="62.4998" y="-612.5"/>
      <point x="44.8332" y="-634.167"/>
      <point x="10.8332" y="-634.167" type="curve" smooth="yes"/>
      <point x="-20.8728" y="-634.167"/>
      <point x="-36.3087" y="-612.503"/>
      <point x="-38.1668" y="-565.334" type="curve" smooth="yes"/>
      <point x="-40.3334" y="-510.334" type="line"/>
      <point x="-156.833" y="-510.334" type="line"/>
      <point x="-159" y="-565.334" type="line" smooth="yes"/>
      <point x="-160.858" y="-612.503"/>
      <point x="-176.294" y="-634.167"/>
      <point x="-208" y="-634.167" type="curve" smooth="yes"/>
      <point x="-242" y="-634.167"/>
      <point x="-259.667" y="-612.5"/>
      <point x="-259.667" y="-565.167" type="curve" smooth="yes"/>
      <point x="-259.667" y="-542.834" type="line" smooth="yes"/>
      <point x="-259.667" y="-481.721"/>
      <point x="-242.327" y="-457.729"/>
      <point x="-199.667" y="-456.334" type="curve" smooth="yes"/>
      <point x="-164" y="-455.167" type="line"/>
      <point x="-164" y="-352.5" type="line"/>
      <point x="-197.333" y="-350.5" type="line" smooth="yes"/>
      <point x="-241.048" y="-347.877"/>
      <point x="-258.833" y="-329.167"/>
      <point x="-258.833" y="-284.5" type="curve" smooth="yes"/>
      <point x="-258.833" y="-279.5" type="line" smooth="yes"/>
      <point x="-258.833" y="-233.833"/>
      <point x="-239.333" y="-215.667"/>
      <point x="-195.333" y="-215.667" type="curve" smooth="yes"/>
      <point x="-178.167" y="-215.667"/>
      <point x="-160" y="-217.5"/>
      <point x="-147" y="-220.5" type="curve"/>
      <point x="-157" y="-118" type="line"/>
      <point x="-180.5" y="-112.833"/>
      <point x="-202" y="-112"/>
    </contour>
  </outline>
</glyph>
<glyph name="TthamatraAu.kn" format="2">
  <advance width="1440"/>
  <outline>
    <component base="matraAu.kn" xOffset="452"/>
    <contour>
      <point x="237" y="1074" type="line"/>
      <point x="237" y="1041" type="line"/>
      <point x="136.688" y="1011.89"/>
      <point x="87" y="919.671"/>
      <point x="87" y="745" type="curve" smooth="yes"/>
      <point x="87" y="378" type="line" smooth="yes"/>
      <point x="87" y="108.278"/>
      <point x="204.308" y="-24"/>
      <point x="441" y="-24" type="curve" smooth="yes"/>
      <point x="678.082" y="-24"/>
      <point x="793" y="108.278"/>
      <point x="793" y="378" type="curve" smooth="yes"/>
      <point x="793" y="745" type="line" smooth="yes"/>
      <point x="793" y="919.079"/>
      <point x="740" y="1010.99"/>
      <point x="633" y="1040" type="curve"/>
      <point x="633" y="1074" type="line"/>
    </contour>
    <contour>
      <point x="87" y="1193" type="line"/>
      <point x="87" y="1046" type="line"/>
      <point x="578" y="1046" type="line"/>
      <point x="578" y="1193" type="line"/>
    </contour>
    <contour>
      <point x="440" y="760" type="curve" smooth="yes"/>
      <point x="389.074" y="760"/>
      <point x="363" y="722.686"/>
      <point x="363" y="641" type="curve" smooth="yes"/>
      <point x="363" y="555" type="line" smooth="yes"/>
      <point x="363" y="473.319"/>
      <point x="389.074" y="435"/>
      <point x="440" y="435" type="curve" smooth="yes"/>
      <point x="491.676" y="435"/>
      <point x="517" y="472.314"/>
      <point x="517" y="554" type="curve" smooth="yes"/>
      <point x="517" y="641" type="line" smooth="yes"/>
      <point x="517" y="722.686"/>
      <point x="491.676" y="760"/>
    </contour>
    <contour>
      <point x="623" y="799" type="curve" smooth="yes"/>
      <point x="623" y="382" type="line" smooth="yes"/>
      <point x="623" y="216.315"/>
      <point x="564.5" y="134"/>
      <point x="441" y="134" type="curve" smooth="yes"/>
      <point x="317.238" y="134"/>
      <point x="257" y="216.315"/>
      <point x="257" y="382" type="curve" smooth="yes"/>
      <point x="257" y="799" type="line" smooth="yes"/>
      <point x="257" y="963.349"/>
      <point x="317.238" y="1046"/>
      <point x="441" y="1046" type="curve" smooth="yes"/>
      <point x="564.5" y="1046"/>
      <point x="623" y="963.349"/>
    </contour>
  </outline>
  <guideline angle="0" x="0" y="564"/>
  <guideline angle="90" x="1077" y="0"/>
  <guideline angle="90" x="1705" y="0"/>
</glyph>
<glyph name="TthamatraU.kn" format="2">
  <advance width="1292"/>
  <outline>
    <component base="Ttha.kn"/>
    <component base="matraU.kn" xOffset="881"/>
    <contour>
      <point x="724" y="313" type="line"/>
      <point x="793" y="314" type="line"/>
      <point x="793" y="398" type="line"/>
      <point x="724" y="398" type="line"/>
    </contour>
  </outline>
</glyph>
<glyph name="VamatraAu.kn" format="2">
  <advance width="1603"/>
  <outline>
    <component base="matraAu.kn" xOffset="615"/>
    <contour>
      <point x="739" y="-21" type="curve" smooth="yes"/>
      <point x="888.687" y="-21"/>
      <point x="967" y="77.0066"/>
      <point x="967" y="274" type="curve" smooth="yes"/>
      <point x="967" y="525" type="line" smooth="yes"/>
      <point x="967" y="867.333"/>
      <point x="885.97" y="1010.05"/>
      <point x="712" y="1039" type="curve"/>
      <point x="712" y="1076" type="line"/>
      <point x="358" y="1074" type="line"/>
      <point x="358" y="1045" type="line"/>
      <point x="678.734" y="1045"/>
      <point x="795" y="914"/>
      <point x="795" y="526" type="curve" smooth="yes"/>
      <point x="795" y="276" type="line" smooth="yes"/>
      <point x="795" y="184.114"/>
      <point x="766.032" y="142"/>
      <point x="709" y="142" type="curve" smooth="yes"/>
      <point x="645" y="142"/>
      <point x="615.816" y="186.052"/>
      <point x="612" y="282" type="curve" smooth="yes"/>
      <point x="605" y="458" type="line"/>
      <point x="449" y="458" type="line"/>
      <point x="442" y="283" type="line" smooth="yes"/>
      <point x="438.122" y="186.058"/>
      <point x="409.653" y="140"/>
      <point x="343" y="140" type="curve" smooth="yes"/>
      <point x="277.327" y="140"/>
      <point x="244" y="186"/>
      <point x="244" y="284" type="curve" smooth="yes"/>
      <point x="244" y="440" type="line" smooth="yes"/>
      <point x="244" y="520.633"/>
      <point x="269" y="558"/>
      <point x="326" y="558" type="curve" smooth="yes"/>
      <point x="350" y="558"/>
      <point x="368" y="552.632"/>
      <point x="390" y="541" type="curve"/>
      <point x="381" y="688" type="line"/>
      <point x="355" y="704"/>
      <point x="324" y="712"/>
      <point x="281" y="712" type="curve" smooth="yes"/>
      <point x="144" y="712"/>
      <point x="77" y="623"/>
      <point x="77" y="444" type="curve" smooth="yes"/>
      <point x="77" y="275" type="line" smooth="yes"/>
      <point x="77" y="77"/>
      <point x="159.723" y="-21"/>
      <point x="317" y="-21" type="curve" smooth="yes"/>
      <point x="442.958" y="-21"/>
      <point x="513.259" y="37.8421"/>
      <point x="524" y="151" type="curve"/>
      <point x="530" y="151" type="line"/>
      <point x="540.844" y="37.8421"/>
      <point x="613.797" y="-21"/>
    </contour>
    <contour>
      <point x="743" y="1045" type="line"/>
      <point x="743" y="1193" type="line"/>
      <point x="112" y="1193" type="line"/>
      <point x="112" y="1045" type="line"/>
    </contour>
  </outline>
  <guideline angle="90" x="104" y="0"/>
  <guideline angle="0" x="0" y="955"/>
  <guideline angle="90" x="757" y="0"/>
</glyph>
